<svg xmlns="http://www.w3.org/2000/svg" width="34" height="34" viewBox="0 0 34 34">
  <g id="Group_255" data-name="Group 255" transform="translate(5037 9838)">
    <g id="Group_253" data-name="Group 253" transform="translate(-5)">
      <rect id="Rectangle_157" data-name="Rectangle 157" width="34" height="34" transform="translate(-5032 -9838)" fill="rgba(101,20,20,0)"/>
      <g id="Group_251" data-name="Group 251" transform="translate(-0.49 -2.338)">
        <rect id="Rectangle_162" data-name="Rectangle 162" width="28" height="27" transform="translate(-5028.51 -9831.662)" fill="rgba(231,238,248,0)"/>
        <path id="Icon_awesome-user" data-name="Icon awesome-user" d="M9,10.29A5.145,5.145,0,1,0,3.859,5.145,5.145,5.145,0,0,0,9,10.29Zm3.6,1.286h-.671a7,7,0,0,1-5.86,0H5.4a5.4,5.4,0,0,0-5.4,5.4v1.672A1.93,1.93,0,0,0,1.929,20.58H16.078a1.93,1.93,0,0,0,1.929-1.929V16.979A5.4,5.4,0,0,0,12.605,11.576Z" transform="translate(-5024.038 -9828.219)" fill="#e7eef8"/>
      </g>
    </g>
  </g>
</svg>
