<svg xmlns="http://www.w3.org/2000/svg" width="34" height="34" viewBox="0 0 34 34">
  <g id="Group_258" data-name="Group 258" transform="translate(4923 9838)">
    <rect id="Rectangle_167" data-name="Rectangle 167" width="34" height="34" transform="translate(-4923 -9838)" fill="rgba(101,20,20,0)"/>
    <rect id="Rectangle_168" data-name="Rectangle 168" width="30" height="30" rx="2" transform="translate(-4921 -9836)" fill="rgba(231,238,248,0)"/>
    <g id="Icon_ionic-md-analytics" data-name="Icon ionic-md-analytics" transform="translate(-4918.25 -9834.375)">
      <path id="Path_50" data-name="Path 50" d="M18.327,12.335l-4.036,6.174a2.2,2.2,0,0,1,.5,1.4,2.221,2.221,0,0,1-4.443,0,2.434,2.434,0,0,1,.037-.412L7.72,17.948a2.208,2.208,0,0,1-1.541.62,2.234,2.234,0,0,1-1.092-.287L2.25,20.938v2.647a1.981,1.981,0,0,0,1.976,1.976H21.011a1.981,1.981,0,0,0,1.976-1.976V13.746l-2.712-1.8a2.22,2.22,0,0,1-1.948.389Z" transform="translate(0 -2.93)" fill="#e7eef8"/>
      <path id="Path_51" data-name="Path 51" d="M6.184,11.2a2.222,2.222,0,0,1,2.221,2.221c0,.1-.009.194-.019.287l2.781,1.555a2.2,2.2,0,0,1,1.407-.5,2.324,2.324,0,0,1,.481.051L17.1,8.544a2.2,2.2,0,0,1-.412-1.287,2.221,2.221,0,1,1,4.443,0,2.414,2.414,0,0,1-.06.523l1.911,1.277V5.351a1.981,1.981,0,0,0-1.976-1.976H4.226A1.981,1.981,0,0,0,2.25,5.351V15.963L4.1,14.19A2.221,2.221,0,0,1,6.184,11.2Z" fill="#e7eef8"/>
    </g>
  </g>
</svg>
