<svg xmlns="http://www.w3.org/2000/svg" width="34" height="34" viewBox="0 0 34 34">
  <g id="Group_257" data-name="Group 257" transform="translate(4961 9838)">
    <rect id="Rectangle_166" data-name="Rectangle 166" width="34" height="34" transform="translate(-4961 -9838)" fill="rgba(101,20,20,0)"/>
    <rect id="Rectangle_165" data-name="Rectangle 165" width="30" height="30" rx="2" transform="translate(-4959 -9836)" fill="rgba(231,238,248,0)"/>
    <path id="Icon_awesome-calculator" data-name="Icon awesome-calculator" d="M17.188,0H2.063A2.115,2.115,0,0,0,0,2.063V19.938A2.115,2.115,0,0,0,2.063,22H17.188a2.115,2.115,0,0,0,2.063-2.062V2.063A2.115,2.115,0,0,0,17.188,0ZM5.5,18.7a.591.591,0,0,1-.55.55H3.3a.591.591,0,0,1-.55-.55V17.05a.591.591,0,0,1,.55-.55H4.95a.591.591,0,0,1,.55.55Zm0-5.5a.591.591,0,0,1-.55.55H3.3a.591.591,0,0,1-.55-.55V11.55A.591.591,0,0,1,3.3,11H4.95a.591.591,0,0,1,.55.55ZM11,18.7a.591.591,0,0,1-.55.55H8.8a.591.591,0,0,1-.55-.55V17.05a.591.591,0,0,1,.55-.55h1.65a.591.591,0,0,1,.55.55Zm0-5.5a.591.591,0,0,1-.55.55H8.8a.591.591,0,0,1-.55-.55V11.55A.591.591,0,0,1,8.8,11h1.65a.591.591,0,0,1,.55.55Zm5.5,5.5a.591.591,0,0,1-.55.55H14.3a.591.591,0,0,1-.55-.55V11.55A.591.591,0,0,1,14.3,11h1.65a.591.591,0,0,1,.55.55V18.7Zm0-11a.591.591,0,0,1-.55.55H3.3a.591.591,0,0,1-.55-.55V3.3a.591.591,0,0,1,.55-.55H15.95a.591.591,0,0,1,.55.55Z" transform="translate(-4953.725 -9831)" fill="#e7eef8"/>
  </g>
</svg>
