<svg xmlns="http://www.w3.org/2000/svg" width="34" height="34" viewBox="0 0 34 34">
  <g id="Group_254" data-name="Group 254" transform="translate(5075 9838)">
    <g id="Group_252" data-name="Group 252">
      <rect id="Rectangle_156" data-name="Rectangle 156" width="34" height="34" transform="translate(-5075 -9838)" fill="rgba(101,20,20,0)"/>
      <path id="Icon_open-dashboard" data-name="Icon open-dashboard" d="M11.64,0a11.64,11.64,0,1,0,11.64,11.64A11.674,11.674,0,0,0,11.64,0Zm0,2.91a8.73,8.73,0,1,1-8.73,8.73A8.718,8.718,0,0,1,11.64,2.91Zm0,2.91a1.455,1.455,0,1,0,1.455,1.455A1.441,1.441,0,0,0,11.64,5.82ZM6.809,8.73a1.455,1.455,0,0,0-.553,2.444L8.9,13.822a2.955,2.955,0,0,0-.175.727,2.91,2.91,0,1,0,2.91-2.91,2.955,2.955,0,0,0-.727.175L8.264,9.166A1.455,1.455,0,0,0,6.984,8.7a1.455,1.455,0,0,0-.175,0Zm9.2,0a1.455,1.455,0,1,0,1.455,1.455A1.441,1.441,0,0,0,16,8.73Z" transform="translate(-5070 -9833)" fill="#e7eef8"/>
    </g>
  </g>
</svg>
