<svg xmlns="http://www.w3.org/2000/svg" width="42" height="42" viewBox="0 0 42 42">
  <g id="Group_253" data-name="Group 253" transform="translate(-613 -3783)">
    <circle id="Ellipse_6" data-name="Ellipse 6" cx="21" cy="21" r="21" transform="translate(613 3783)" fill="rgba(255,255,255,0)"/>
    <path id="discord-svgrepo-com_1_" data-name="discord-svgrepo-com (1)" d="M21.122,4.43a20.575,20.575,0,0,0-5.079-1.575.077.077,0,0,0-.082.038c-.218.39-.462.9-.632,1.3a18.994,18.994,0,0,0-5.7,0,13.141,13.141,0,0,0-.641-1.3A.08.08,0,0,0,8.9,2.855,20.518,20.518,0,0,0,3.823,4.43a.073.073,0,0,0-.033.028A21.051,21.051,0,0,0,.1,18.659a.085.085,0,0,0,.032.059,20.689,20.689,0,0,0,6.23,3.15.081.081,0,0,0,.087-.029,14.648,14.648,0,0,0,1.275-2.073.079.079,0,0,0-.043-.11,13.626,13.626,0,0,1-1.946-.927A.08.08,0,0,1,5.73,18.6q.2-.147.387-.3a.077.077,0,0,1,.08-.01,14.759,14.759,0,0,0,12.54,0,.077.077,0,0,1,.081.01c.125.1.256.206.388.3a.08.08,0,0,1-.006.132,12.787,12.787,0,0,1-1.947.927.08.08,0,0,0-.043.111,16.612,16.612,0,0,0,1.274,2.072.079.079,0,0,0,.087.029,20.625,20.625,0,0,0,6.24-3.15.08.08,0,0,0,.033-.056,20.917,20.917,0,0,0-3.69-14.2.063.063,0,0,0-.032-.031ZM8.338,15.824A2.4,2.4,0,0,1,6.1,13.31a2.386,2.386,0,0,1,2.242-2.515,2.373,2.373,0,0,1,2.242,2.516A2.385,2.385,0,0,1,8.338,15.824Zm8.291,0a2.4,2.4,0,0,1-2.242-2.515,2.385,2.385,0,0,1,2.242-2.515,2.373,2.373,0,0,1,2.242,2.516A2.378,2.378,0,0,1,16.629,15.824Z" transform="translate(622 3791.146)" fill="#fff"/>
  </g>
</svg>
