<?xml version="1.0" encoding="utf-8"?>
<!-- Generator: Adobe Illustrator 25.0.0, SVG Export Plug-In . SVG Version: 6.00 Build 0)  -->
<svg version="1.1" id="Layer_1" xmlns="http://www.w3.org/2000/svg" xmlns:xlink="http://www.w3.org/1999/xlink" x="0px" y="0px"
	 viewBox="0 0 24 24" style="enable-background:new 0 0 24 24;" xml:space="preserve">
<style type="text/css">
	.st0{display:none;fill:#F0B90B;}
	.st1{display:none;fill:#FFFFFF;}
	.st2{fill-rule:evenodd;clip-rule:evenodd;fill:#627EEA;}
	.st3{fill:#FFFFFF;fill-opacity:0.602;}
	.st4{fill:#FFFFFF;}
	.st5{fill:#FFFFFF;fill-opacity:0.2;}
</style>
<circle class="st0" cx="12" cy="12" r="12"/>
<path class="st1" d="M7.7,6.5L12,4l4.2,2.5l-1.6,0.9L12,5.8L9.3,7.4L7.7,6.5z M16.2,9.6l-1.6-0.9L12,10.2L9.3,8.7L7.7,9.6v1.8
	l2.7,1.6v3.1L12,17l1.6-0.9v-3.1l2.7-1.6V9.6z M16.2,14.5v-1.8l-1.6,0.9v1.8L16.2,14.5z M17.3,15.1l-2.7,1.6v1.8l4.2-2.5v-4.9
	L17.3,12V15.1z M15.7,8l1.6,0.9v1.8l1.6-0.9V8l-1.6-0.9L15.7,8z M10.4,17.4v1.8l1.6,0.9l1.6-0.9v-1.8L12,18.3L10.4,17.4z M7.7,14.5
	l1.6,0.9v-1.8l-1.6-0.9V14.5z M10.4,8L12,8.9L13.5,8L12,7.1L10.4,8z M6.6,8.9L8.2,8L6.6,7.1L5.1,8v1.8l1.6,0.9V8.9z M6.6,12
	l-1.6-0.9v4.9l4.2,2.5v-1.8l-2.7-1.6V12z"/>
<g>
	<circle class="st2" cx="12" cy="12" r="12"/>
	<g>
		<path class="st3" d="M12.4,3v6.7l5.6,2.5L12.4,3z"/>
		<path class="st4" d="M12.4,3l-5.6,9.2l5.6-2.5L12.4,3z"/>
		<path class="st3" d="M12.4,16.5V21l5.6-7.8L12.4,16.5z"/>
		<path class="st4" d="M12.4,21v-4.5l-5.6-3.3L12.4,21z"/>
		<path class="st5" d="M12.4,15.4l5.6-3.3l-5.6-2.5V15.4z"/>
		<path class="st3" d="M6.8,12.2l5.6,3.3V9.7L6.8,12.2z"/>
	</g>
</g>
</svg>
