<svg xmlns="http://www.w3.org/2000/svg" width="42" height="42" viewBox="0 0 42 42">
  <g id="Group_250" data-name="Group 250" transform="translate(-417 -3799)">
    <circle id="Ellipse_5" data-name="Ellipse 5" cx="21" cy="21" r="21" transform="translate(417 3799)" fill="rgba(255,255,255,0)"/>
    <g id="Group_249" data-name="Group 249" transform="translate(799.759 3788.787)">
      <path id="Path_50" data-name="Path 50" d="M-27.005,48.82c-.034.367-.065.734-.1,1.1a11.612,11.612,0,0,1-.542,2.855,2.482,2.482,0,0,1-.3.589c-.195.273-.458.291-.616,0a5.177,5.177,0,0,1-.51-1.271,21.593,21.593,0,0,1-.426-5.8,16.984,16.984,0,0,1,.421-3.429,7.82,7.82,0,0,1,.349-1.025c.083-.206.21-.431.46-.436.266-.006.407.227.478.443a11.908,11.908,0,0,1,.478,1.678c.134.778.18,1.57.266,2.356.01.088.03.175.045.262Z" transform="translate(-322.362 -16.052)" fill="#fff"/>
      <path id="Path_51" data-name="Path 51" d="M-367.586,38.648a7.23,7.23,0,0,1-7.172-7.1,7.215,7.215,0,0,1,7.161-7.333,7.2,7.2,0,0,1,7.172,7.173A7.2,7.2,0,0,1-367.586,38.648Z" transform="translate(0 0)" fill="#fff"/>
      <path id="Path_52" data-name="Path 52" d="M-147.976,36.856a9.84,9.84,0,0,1,1-4.145,4.621,4.621,0,0,1,1.126-1.491,2.1,2.1,0,0,1,2.9,0,5.691,5.691,0,0,1,1.618,2.7,11.838,11.838,0,0,1,.459,4.67,9.7,9.7,0,0,1-.951,3.558,4.633,4.633,0,0,1-1.146,1.507,2.1,2.1,0,0,1-2.862,0,5.592,5.592,0,0,1-1.584-2.553A12.468,12.468,0,0,1-147.976,36.856Z" transform="translate(-211.762 -6.002)" fill="#fff"/>
    </g>
  </g>
</svg>
