<?xml version="1.0" encoding="utf-8"?>
<!-- Generator: Adobe Illustrator 25.0.0, SVG Export Plug-In . SVG Version: 6.00 Build 0)  -->
<svg version="1.1" id="Layer_1" xmlns="http://www.w3.org/2000/svg" xmlns:xlink="http://www.w3.org/1999/xlink" x="0px" y="0px"
	 viewBox="0 0 29 29" style="enable-background:new 0 0 29 29;" xml:space="preserve">
<style type="text/css">
	.st0{fill:none;}
	.st1{fill:none;stroke:#FF5353;stroke-width:2;}
	.st2{fill:#FF5353;}
</style>
<g id="Group_1" transform="translate(50 -163)">
	<g id="Ellipse_1" transform="translate(-50 163)">
		<circle class="st0" cx="14.5" cy="14.5" r="14.5"/>
		<circle class="st1" cx="14.5" cy="14.5" r="13.5"/>
	</g>
	<path id="Icon_open-question-mark" class="st2" d="M-35.1,170c-1.4-0.1-2.7,0.4-3.7,1.3c-0.7,0.7-1.1,1.6-1.2,2.5l2,0.3
		c0.1-0.5,0.3-1,0.6-1.4c0.6-0.6,1.5-0.8,2.3-0.8c0.9-0.1,1.7,0.2,2.4,0.7c0.4,0.3,0.6,0.8,0.6,1.3c0,1.6-0.7,2.1-1.7,3
		c-1.4,1-2.3,2.7-2.3,4.5v0.5h2v-0.5c0-1.6,0.6-2.1,1.6-3c1.4-1,2.3-2.7,2.4-4.5c0-1.1-0.4-2.1-1.2-2.8
		C-32.4,170.3-33.8,169.9-35.1,170z M-36.1,183.9v2h2v-2H-36.1z"/>
</g>
</svg>
