<svg xmlns="http://www.w3.org/2000/svg" width="30.2" height="30.208" viewBox="0 0 30.2 30.208">
  <path id="Icon_ionic-ios-settings" data-name="Icon ionic-ios-settings" d="M32.207,19.6A3.886,3.886,0,0,1,34.7,15.974a15.4,15.4,0,0,0-1.864-4.491,3.938,3.938,0,0,1-1.581.338,3.878,3.878,0,0,1-3.547-5.458A15.357,15.357,0,0,0,23.226,4.5a3.883,3.883,0,0,1-7.251,0,15.4,15.4,0,0,0-4.491,1.864,3.878,3.878,0,0,1-3.547,5.458,3.81,3.81,0,0,1-1.581-.338,15.744,15.744,0,0,0-1.856,4.5,3.885,3.885,0,0,1,.008,7.251,15.4,15.4,0,0,0,1.864,4.491,3.879,3.879,0,0,1,5.12,5.12,15.494,15.494,0,0,0,4.491,1.864,3.876,3.876,0,0,1,7.235,0,15.4,15.4,0,0,0,4.491-1.864,3.883,3.883,0,0,1,5.12-5.12,15.494,15.494,0,0,0,1.864-4.491A3.9,3.9,0,0,1,32.207,19.6ZM19.671,25.884a6.292,6.292,0,1,1,6.292-6.292A6.29,6.29,0,0,1,19.671,25.884Z" transform="translate(-4.5 -4.5)" fill="#fff"/>
</svg>
