<svg xmlns="http://www.w3.org/2000/svg" width="42" height="42" viewBox="0 0 42 42">
  <g id="Group_39" data-name="Group 39" transform="translate(-1107 -3638)">
    <g id="Group_251" data-name="Group 251">
      <circle id="Ellipse_5" data-name="Ellipse 5" cx="21" cy="21" r="21" transform="translate(1107 3638)" fill="rgba(255,255,255,0)"/>
      <path id="telegram-svgrepo-com" d="M25.394,7.18S27.659,6.3,27.47,8.442c-.063.883-.629,3.974-1.069,7.317l-1.51,9.9s-.126,1.451-1.258,1.7-2.831-.883-3.145-1.135c-.252-.189-4.718-3.028-6.291-4.415a1.2,1.2,0,0,1,.063-2.018l6.605-6.308c.755-.757,1.51-2.523-1.636-.378L10.422,19.1a3.688,3.688,0,0,1-2.894.063L3.439,17.9s-1.51-.946,1.069-1.892C10.8,13.046,18.537,10.019,25.394,7.18Z" transform="translate(1112 3642)" fill="#fff"/>
    </g>
  </g>
</svg>
