<svg xmlns="http://www.w3.org/2000/svg" width="42" height="42" viewBox="0 0 42 42">
  <g id="Group_252" data-name="Group 252" transform="translate(-482 -3759)">
    <circle id="Ellipse_6" data-name="Ellipse 6" cx="21" cy="21" r="21" transform="translate(482 3759)" fill="rgba(255,255,255,0)"/>
    <g id="XMLID_826_" transform="translate(491.002 3741.903)">
      <path id="XMLID_827_" d="M23.074,30.328a8.95,8.95,0,0,1-1.142.416,5.048,5.048,0,0,0,1.028-1.807.381.381,0,0,0-.557-.444,8.987,8.987,0,0,1-2.657,1.05,5.071,5.071,0,0,0-8.617,3.623,5.171,5.171,0,0,0,.042.655A12.977,12.977,0,0,1,2.265,29.1a.381.381,0,0,0-.624.049,5.076,5.076,0,0,0,.52,5.834,4.293,4.293,0,0,1-.678-.3A.381.381,0,0,0,.916,35c0,.022,0,.045,0,.068A5.087,5.087,0,0,0,3.4,39.426c-.129-.013-.258-.032-.386-.056a.381.381,0,0,0-.434.49,5.067,5.067,0,0,0,3.713,3.4A8.967,8.967,0,0,1,1.5,44.626a9.171,9.171,0,0,1-1.074-.063.381.381,0,0,0-.25.7,13.669,13.669,0,0,0,7.392,2.167,13.15,13.15,0,0,0,10.188-4.475,14.184,14.184,0,0,0,3.531-9.244c0-.139,0-.28-.006-.42a9.854,9.854,0,0,0,2.268-2.4.381.381,0,0,0-.471-.56Z" transform="translate(0 0)" fill="#fff"/>
    </g>
  </g>
</svg>
