<svg width="32" height="32" viewBox="0 0 32 32" fill="none" xmlns="http://www.w3.org/2000/svg">
<path fill-rule="evenodd" clip-rule="evenodd" d="M17.3621 1.24031C17.3621 0.555306 16.7524 0 16.0004 0C15.2483 0 14.6387 0.555306 14.6387 1.24031V14.6383H1.24031C0.555306 14.6383 0 15.248 0 16C0 16.752 0.555306 17.3617 1.24031 17.3617H14.6387V30.7597C14.6387 31.4447 15.2483 32 16.0004 32C16.7524 32 17.3621 31.4447 17.3621 30.7597V17.3617H30.7597C31.4447 17.3617 32 16.752 32 16C32 15.248 31.4447 14.6383 30.7597 14.6383H17.3621V1.24031Z" fill="#33CC66"/>
</svg>
