<svg width="25" height="25" viewBox="0 0 25 25" fill="none" xmlns="http://www.w3.org/2000/svg">
<path fill-rule="evenodd" clip-rule="evenodd" d="M12.5 21C17.1944 21 21 17.1944 21 12.5C21 7.80558 17.1944 4 12.5 4C7.80558 4 4 7.80558 4 12.5C4 17.1944 7.80558 21 12.5 21ZM12.5 25C19.4036 25 25 19.4036 25 12.5C25 5.59644 19.4036 0 12.5 0C5.59644 0 0 5.59644 0 12.5C0 19.4036 5.59644 25 12.5 25ZM13 5.25C14.1046 5.25 15 6.14543 15 7.25V12.25C15 13.3546 14.1046 14.25 13 14.25C11.8954 14.25 11 13.3546 11 12.25V7.25C11 6.14543 11.8954 5.25 13 5.25ZM13 19C14.1046 19 15 18.1046 15 17C15 15.8954 14.1046 15 13 15C11.8954 15 11 15.8954 11 17C11 18.1046 11.8954 19 13 19Z" fill="#FF5F29"/>
</svg>
