<svg width="28" height="28" viewBox="0 0 28 28" fill="none" xmlns="http://www.w3.org/2000/svg">
<path fill-rule="evenodd" clip-rule="evenodd" d="M19.1985 8.46751C19.1985 11.4955 16.7469 13.9501 13.7228 13.9501C10.6987 13.9501 8.24715 11.4955 8.24715 8.46751C8.24715 5.43955 10.6987 2.98489 13.7228 2.98489C16.7469 2.98489 19.1985 5.43955 19.1985 8.46751ZM14.1431 15.9322C18.0714 15.7139 21.1896 12.4553 21.1896 8.46751C21.1896 4.33847 17.8466 0.991211 13.7228 0.991211C9.59901 0.991211 6.25601 4.33847 6.25601 8.46751C6.25601 10.8953 7.41173 13.0528 9.20234 14.4185C8.44921 14.5817 7.67998 14.796 6.92575 15.0687C4.42109 15.9744 1.87635 17.6039 0.81343 20.371L0.74707 20.5437V22.7557C0.74707 25.1414 2.67858 27.0754 5.06122 27.0754H22.517C24.8996 27.0754 26.8311 25.1414 26.8311 22.7557V21.6643L26.8236 21.6034C26.3875 18.0708 23.4471 16.3417 21.2364 15.3355C20.7359 15.1077 20.1457 15.3293 19.9181 15.8305C19.6906 16.3317 19.9119 16.9227 20.4125 17.1505C22.5647 18.13 24.5213 19.4443 24.84 21.7899V22.7557C24.84 24.0403 23.7999 25.0817 22.517 25.0817H5.06122C3.77826 25.0817 2.73822 24.0403 2.73822 22.7557V20.9223C3.54044 19.028 5.39945 17.7404 7.60211 16.9438C9.85352 16.1297 12.2611 15.9068 13.6855 16.0079C13.8475 16.0194 14.0031 15.9915 14.1431 15.9322ZM4.00725 3.64037C3.21944 3.64037 2.58078 4.27902 2.58078 5.06684V16.4786C2.58078 17.0413 2.1246 17.4975 1.56188 17.4975C0.999149 17.4975 0.542969 17.0413 0.542969 16.4786V5.06684C0.542969 3.15357 2.09398 1.60256 4.00725 1.60256H5.63751C6.20023 1.60256 6.65641 2.05874 6.65641 2.62146C6.65641 3.18419 6.20023 3.64037 5.63751 3.64037H4.00725ZM24.9964 5.06682C24.9964 4.27901 24.3577 3.64035 23.5699 3.64035H21.9396C21.3769 3.64035 20.9207 3.18417 20.9207 2.62145C20.9207 2.05872 21.3769 1.60254 21.9396 1.60254H23.5699C25.4832 1.60254 27.0342 3.15355 27.0342 5.06682V16.4786C27.0342 17.0413 26.578 17.4975 26.0153 17.4975C25.4525 17.4975 24.9964 17.0413 24.9964 16.4786V5.06682Z" fill="#ABABAB"/>
</svg>
