<svg width="32" height="26" viewBox="0 0 32 26" fill="none" xmlns="http://www.w3.org/2000/svg">
<path d="M26.8503 2.14872C24.793 1.15373 22.6167 0.446564 20.3788 0.0458984C20.0996 0.566335 19.7749 1.26836 19.549 1.82446C17.1719 1.44994 14.7536 1.44994 12.3764 1.82446C12.1272 1.21678 11.8471 0.623097 11.5373 0.0458984C9.2974 0.447224 7.1194 1.15606 5.06109 2.15359C0.96582 8.55122 -0.144656 14.79 0.410582 20.9396C2.80117 22.8054 5.48709 24.2279 8.3486 25.1436C8.99154 24.229 9.56021 23.261 10.0488 22.2496C9.11947 21.8834 8.22348 21.4326 7.37145 20.9023C7.59574 20.7304 7.81532 20.5504 8.02707 20.3656C13.1889 22.8608 18.7962 22.8608 23.8968 20.3656C24.1117 20.5504 24.3313 20.7304 24.5525 20.9023C23.7039 21.4308 22.8052 21.8848 21.8704 22.2512C22.3582 23.2631 22.9269 24.2312 23.5706 25.1452C26.4344 24.23 29.1221 22.8064 31.5133 20.9379C32.1642 13.8107 30.4013 7.62871 26.8503 2.14872ZM10.7515 17.1571C9.20185 17.1571 7.93139 15.6622 7.93139 13.8415C7.93139 12.0208 9.17519 10.5227 10.7515 10.5227C12.3278 10.5227 13.5983 12.0176 13.5716 13.8415C13.5732 15.6622 12.3278 17.1571 10.7515 17.1571ZM21.1724 17.1571C19.6228 17.1571 18.3523 15.6622 18.3523 13.8415C18.3523 12.0208 19.5961 10.5227 21.1724 10.5227C22.7487 10.5227 24.0192 12.0176 23.9925 13.8415C23.9925 15.6622 22.7487 17.1571 21.1724 17.1571Z" fill="#DFDFDF"/>
</svg>
