<svg width="17" height="17" viewBox="0 0 17 17" fill="none" xmlns="http://www.w3.org/2000/svg">
<path fill-rule="evenodd" clip-rule="evenodd" d="M0 1.84783C0 0.8273 0.761116 0 1.7 0L15.3 0C16.2389 0 17 0.8273 17 1.84783C17 2.86835 16.2389 3.69565 15.3 3.69565L1.7 3.69565C0.761116 3.69565 0 2.86835 0 1.84783Z" fill="#FF5F29"/>
<path fill-rule="evenodd" clip-rule="evenodd" d="M0 8.50017C0 7.47964 0.761116 6.65234 1.7 6.65234L15.3 6.65234C16.2389 6.65234 17 7.47964 17 8.50017C17 9.5207 16.2389 10.348 15.3 10.348L1.7 10.348C0.761116 10.348 0 9.5207 0 8.50017Z" fill="#FF5F29"/>
<path fill-rule="evenodd" clip-rule="evenodd" d="M0 15.1525C0 14.132 0.772147 13.3047 1.72464 13.3047H8.62319C9.57568 13.3047 10.3478 14.132 10.3478 15.1525C10.3478 16.173 9.57568 17.0003 8.62319 17.0003H1.72464C0.772147 17.0003 0 16.173 0 15.1525Z" fill="#FF5F29"/>
</svg>
