<svg width="25" height="30" viewBox="0 0 25 30" fill="none" xmlns="http://www.w3.org/2000/svg">
<path fill-rule="evenodd" clip-rule="evenodd" d="M0.5 3.65226C0.5 1.91131 1.57452 0.5 2.9 0.5L22.1 0.5C23.4255 0.5 24.5 1.91131 24.5 3.65226C24.5 5.3932 23.4255 6.80452 22.1 6.80452L2.9 6.80452C1.57452 6.80452 0.5 5.3932 0.5 3.65226Z" fill="black" fill-opacity="0.25"/>
<path fill-rule="evenodd" clip-rule="evenodd" d="M0.5 15.0009C0.5 13.2599 1.57452 11.8486 2.9 11.8486L22.1 11.8486C23.4255 11.8486 24.5 13.2599 24.5 15.0009C24.5 16.7418 23.4255 18.1532 22.1 18.1532L2.9 18.1532C1.57452 18.1532 0.5 16.7418 0.5 15.0009Z" fill="black" fill-opacity="0.25"/>
<path fill-rule="evenodd" clip-rule="evenodd" d="M0.5 26.3485C0.5 24.6076 1.59009 23.1963 2.93478 23.1963L12.6739 23.1963C14.0186 23.1963 15.1087 24.6076 15.1087 26.3485C15.1087 28.0895 14.0186 29.5008 12.6739 29.5008H2.93478C1.59009 29.5008 0.5 28.0895 0.5 26.3485Z" fill="black" fill-opacity="0.25"/>
</svg>
