<svg width="102" height="102" viewBox="0 0 102 102" fill="none" xmlns="http://www.w3.org/2000/svg">
<circle cx="51" cy="51" r="51" fill="#33CC66"/>
<path fill-rule="evenodd" clip-rule="evenodd" d="M66.4294 78.5911C53.5508 93.8484 31.1687 89.2307 32.7709 84.2014C34.3731 79.1721 32.1921 72.3574 32.1921 72.3574C25.2655 57.3967 26.0392 52.1011 26.0392 52.1011C24.9304 31.3364 43.3466 28.389 49.9139 27.9956C51.3333 27.9109 52.1984 27.9472 52.1984 27.9472C82.0371 27.1059 79.6673 62.9041 66.4294 78.5911Z" fill="#FFCC00"/>
<path d="M30.8184 83.3773L34.9567 84.6949L34.9749 84.5685L34.9628 84.4241L34.9507 84.376L35.0112 84.4542L35.1927 84.6347L35.5073 84.8693L35.9489 85.134L36.5116 85.4048L37.1831 85.6695L37.9575 85.9161L38.8167 86.1327L39.7605 86.3192L40.7769 86.4636L41.8538 86.5659L42.9912 86.62L44.177 86.626L45.4052 86.5779L46.6697 86.4696L47.9644 86.3012L49.2773 86.0665L50.6083 85.7657L51.9514 85.3927L53.2945 84.9475L54.6376 84.4241L55.9747 83.8165L57.2997 83.1306L58.6065 82.3546L59.8891 81.4882L61.1415 80.5317L62.3575 79.4728L63.5373 78.3177L64.6747 77.0543L67.9962 79.8578L66.6834 81.3258L65.31 82.6734L63.8943 83.9067L62.4362 85.0257L60.9418 86.0365L59.4232 86.9389L57.8865 87.739L56.3377 88.4429L54.7828 89.0506L53.228 89.5679L51.6791 90.0011L50.1485 90.3501L48.6359 90.6208L47.1476 90.8133L45.6896 90.9396L44.2678 90.9998L42.8884 90.9938L41.5573 90.9276L40.2747 90.8073L39.0526 90.6328L37.891 90.4042L36.7899 90.1275L35.7614 89.8026L34.7994 89.4236L33.91 88.9964L33.0933 88.5031L32.3552 87.9376L31.7018 87.2698L31.1573 86.4756L30.7821 85.5251L30.6611 84.4602L30.8426 83.3954L30.8184 83.3773ZM30.8184 83.3773C31.1815 82.2342 32.4036 81.5965 33.547 81.9635C34.6905 82.3305 35.3197 83.5518 34.9567 84.6949L30.8184 83.3773ZM30.3465 73.1799L34.2912 71.351L34.388 71.6037L34.4001 71.6458L34.4182 71.712L34.4485 71.8202L34.4908 71.9646L34.5392 72.1451L34.5997 72.3557L34.6663 72.6023L34.7329 72.8731L34.8055 73.1739L34.8841 73.5048L34.9628 73.8597L35.0414 74.2387L35.1201 74.6418L35.1987 75.063L35.2713 75.5021L35.3439 75.9594L35.4105 76.4346L35.471 76.928L35.5254 77.4333L35.5678 77.9507L35.6041 78.4801L35.6283 79.0216L35.6404 79.5691V80.1226L35.6222 80.6821L35.592 81.2476L35.5436 81.8191L35.471 82.3907L35.3802 82.9682L35.2653 83.5458L35.1261 84.1233L34.9567 84.6949L30.8184 83.3773L30.9273 82.9983L31.0241 82.6072L31.1028 82.2042L31.1694 81.789L31.2238 81.3619L31.2601 80.9287L31.2843 80.4896L31.2964 80.0443V79.5992L31.2843 79.154L31.2662 78.7088L31.2359 78.2696L31.1996 77.8364L31.1573 77.4093L31.1089 76.9881L31.0544 76.579L30.9939 76.182L30.9273 75.803L30.8608 75.436L30.7942 75.087L30.7277 74.7622L30.6611 74.4553L30.5946 74.1726L30.5341 73.9139L30.4736 73.6792L30.4191 73.4747L30.3707 73.3002L30.3284 73.1558L30.2981 73.0415L30.2739 72.9633L30.2618 72.9152L30.3586 73.1679L30.3465 73.1799ZM30.2497 72.9272C29.8867 71.7841 30.5159 70.5569 31.6594 70.1959C32.8029 69.8289 34.025 70.4606 34.388 71.6037L30.2497 72.9272ZM24.0363 52.2436L28.3742 52.009L28.3561 52.4361L28.3621 52.376V52.4061L28.3561 52.4662L28.35 52.5625V52.6948V52.8633L28.3561 53.0678L28.3682 53.3145L28.3924 53.5973L28.4226 53.9221L28.465 54.2891L28.5255 54.6922L28.5981 55.1434L28.6888 55.6367L28.7977 56.1722L28.9248 56.7497L29.076 57.3754L29.2454 58.0492L29.439 58.7712L29.6629 59.5412L29.9109 60.3594L30.1892 61.2258L30.4978 62.1402L30.8426 63.1088L31.2178 64.1256L31.6292 65.1964L32.0769 66.3215L32.5669 67.5006L33.0933 68.734L33.662 70.0214L34.273 71.363L30.3284 73.1919L29.6931 71.8022L29.1063 70.4666L28.5557 69.1852L28.0475 67.9579L27.5756 66.7847L27.146 65.6597L26.7467 64.5888L26.3837 63.5661L26.057 62.5914L25.7606 61.6649L25.4944 60.7866L25.2524 59.9564L25.0406 59.1682L24.8531 58.4282L24.6897 57.7304L24.5445 57.0746L24.4235 56.461L24.3207 55.8894L24.236 55.36L24.1634 54.8727L24.1089 54.4215L24.0666 54.0064L24.0363 53.6334L24.0182 53.2965L24.0061 52.9956L24 52.7309V52.4963L24.0061 52.2978L24.0121 52.1353L24.0242 52.003L24.0363 51.9067L24.0484 51.8165L24.0303 52.2436H24.0363ZM24.0545 51.8165C24.2239 50.6253 25.331 49.8011 26.5168 49.9755C27.7027 50.15 28.5255 51.251 28.3561 52.4422L24.0545 51.8165ZM49.7855 25.9951L50.0456 30.3387L49.4406 30.3809L48.7751 30.441L48.0551 30.5192L47.2868 30.6215L46.4761 30.7478L45.623 30.8982L44.7397 31.0787L43.8322 31.2893L42.9065 31.536L41.9688 31.8187L41.0249 32.1376L40.0751 32.4985L39.1313 32.9016L38.1995 33.3528L37.2799 33.8462L36.3785 34.3876L35.5073 34.9832L34.6663 35.627L33.8556 36.3248L33.0872 37.0829L32.3612 37.9011L31.6776 38.7794L31.0483 39.724L30.4675 40.7407L29.9472 41.8356L29.4874 43.0088L29.1002 44.2662L28.7856 45.6138L28.5497 47.0577L28.3984 48.6038L28.344 50.2523L28.3863 52.015L24.0484 52.2496L24 50.2402L24.0666 48.3271L24.242 46.5042L24.5264 44.7715L24.9136 43.1291L25.3915 41.5769L25.9602 40.109L26.6136 38.7313L27.3457 37.4378L28.1504 36.2346L29.0155 35.1156L29.9412 34.0808L30.9152 33.1242L31.9256 32.2519L32.9723 31.4517L34.0431 30.7238L35.1322 30.068L36.2333 29.4724L37.3404 28.937L38.4537 28.4617L39.5608 28.0406L40.6559 27.6676L41.7328 27.3427L42.7916 27.0599L43.8201 26.8193L44.8183 26.6147L45.7743 26.4463L46.6878 26.3079L47.553 26.1936L48.3637 26.1034L49.1139 26.0372L49.7976 25.989L49.7855 25.9951ZM49.7855 25.9951C50.9834 25.9229 52.0119 26.8373 52.0845 28.0345C52.1571 29.2318 51.2435 30.2665 50.0456 30.3327L49.7855 25.989V25.9951ZM52.1208 25.9409L52.2418 30.2906H52.0966H52.1026H52.0966H52.0905H52.0724H52.0482H52.024H51.9937H51.9574H51.9211H51.8788H51.8304H51.7759H51.7215H51.661H51.5944H51.5279H51.4553H51.3766H51.298H51.2133H51.1225H51.0318H50.935L50.8382 30.2966L50.7353 30.3026L50.6325 30.3087L50.5236 30.3147L50.4086 30.3207L50.2937 30.3267L50.1727 30.3327L50.0517 30.3387L49.7915 25.9951L49.9307 25.989L50.0638 25.983L50.1969 25.977L50.3239 25.971L50.451 25.965L50.572 25.959L50.6869 25.953L50.8019 25.9469L50.9108 25.9409H51.0136H51.1165H51.2133H51.3101H51.4008H51.4855H51.5702H51.6489H51.7215H51.7941H51.8606H51.9211H51.9756H52.03H52.0784H52.1208H52.1571H52.1873H52.2176H52.2418H52.266H52.272H52.2781H52.1329H52.1208ZM52.266 25.9409C53.4639 25.989 54.3956 26.9998 54.3533 28.203C54.3049 29.4062 53.2945 30.3387 52.0966 30.2906L52.266 25.9409ZM67.972 79.8578L64.6505 77.0543L65.7698 75.6405L66.8286 74.1184L67.8268 72.5001L68.7585 70.7915L69.6176 69.0047L70.4042 67.1517L71.106 65.2446L71.7231 63.2893L72.2494 61.304L72.685 59.2946L73.0238 57.2792L73.2598 55.2637L73.3929 53.2604L73.4171 51.281L73.3324 49.3318L73.1327 47.4307L72.8181 45.5837L72.3886 43.8029L71.838 42.1004L71.1665 40.488L70.3739 38.9659L69.4603 37.5461L68.4258 36.2346L67.2581 35.0374L65.9573 33.9545L64.5114 32.9919L62.9081 32.1616L61.1415 31.4638L59.1994 30.9163L57.0758 30.5313L54.7586 30.3207L52.2418 30.2966L52.1208 25.9469L54.9764 25.977L57.6627 26.2237L60.1795 26.6809L62.5269 27.3427L64.711 28.203L66.7197 29.2498L68.5589 30.4711L70.2166 31.8488L71.6989 33.3709L73.0057 35.0253L74.1431 36.7941L75.1111 38.6591L75.9218 40.6083L76.5752 42.6298L77.0834 44.7114L77.4465 46.8411L77.6764 49.0129L77.7732 51.2149L77.749 53.4348L77.6038 55.6668L77.3436 57.8988L76.9745 60.1248L76.4966 62.3327L75.9158 64.5166L75.2382 66.6644L74.4638 68.764L73.5986 70.8095L72.6427 72.7888L71.6021 74.696L70.4768 76.5189L69.2728 78.2455L67.9902 79.8699L67.972 79.8578ZM67.972 79.8578C67.1976 80.7783 65.8303 80.8926 64.9107 80.1165C63.9911 79.3405 63.8761 77.9688 64.6505 77.0483L67.972 79.8518V79.8578Z" fill="black"/>
<path fill-rule="evenodd" clip-rule="evenodd" d="M49.9671 24.6136C55.3746 20.5963 63.4174 24.9956 70.4705 16.406C56.1318 8.70586 49.0668 21.623 49.9671 24.6136Z" fill="#33CC66"/>
<path d="M69.2485 18.6196L71.3102 14.7333L71.9632 18.0827L71.2195 18.9552L70.4577 19.7544L69.6838 20.4805L68.9039 21.1333L68.1119 21.7251L67.3138 22.2498L66.5097 22.7134L65.7056 23.1222L64.9076 23.4761L64.1095 23.7811L63.3175 24.0374L62.5376 24.257L61.7697 24.44L61.014 24.5926L60.2704 24.7207L59.5448 24.8244L58.8375 24.9159L58.1422 24.9952L57.4711 25.0684L56.8181 25.1356L56.1833 25.2027L55.5727 25.2759L54.9862 25.3552L54.424 25.4467L53.8859 25.5504L53.372 25.6724L52.8883 25.8128L52.4288 25.9714L51.9935 26.1544L51.5763 26.3619L51.1773 26.5937L50.7904 26.8621L48.1906 23.3174L48.8496 22.866L49.5268 22.4694L50.2099 22.1338L50.8992 21.8471L51.5945 21.6091L52.2897 21.4139L52.979 21.2492L53.6682 21.115L54.3514 21.0051L55.0285 20.9136L55.6996 20.8343L56.3647 20.7611L57.0237 20.694L57.6767 20.6269L58.3236 20.5537L58.9644 20.4744L59.5993 20.3828L60.228 20.2791L60.8508 20.1571L61.4614 20.0107L62.066 19.8398L62.6645 19.6446L63.257 19.4189L63.8495 19.1565L64.436 18.8576L65.0224 18.5159L65.6089 18.1316L66.1954 17.6923L66.7879 17.1981L67.3804 16.6429L67.9789 16.0206L68.5774 15.319L69.2304 18.6684L69.2485 18.6196ZM68.5956 15.2702C69.3634 14.3306 70.7358 14.1964 71.6669 14.9712C72.598 15.746 72.731 17.1371 71.9632 18.0766L68.5956 15.2702ZM48.1906 23.2869L50.7904 26.8316L47.4046 25.6968L47.2656 24.9952L47.2354 24.3302L47.2837 23.6835L47.3925 23.0368L47.5558 22.384L47.7734 21.719L48.0395 21.0478L48.3599 20.3645L48.7287 19.6751L49.1459 18.9796L49.6174 18.2841L50.1374 17.5947L50.7118 16.9174L51.3405 16.2585L52.0237 15.624L52.7613 15.0139L53.5533 14.4404L54.3998 13.9096L55.3067 13.4276L56.268 13.0067L57.2837 12.6467L58.3478 12.36L59.4602 12.1525L60.621 12.0305L61.8242 12L63.0696 12.0671L64.3574 12.2318L65.6814 12.5064L67.0357 12.8908L68.4263 13.3849L69.8471 13.995L71.3042 14.7272L69.2425 18.6135L68.0152 17.9912L66.8423 17.4848L65.7238 17.0883L64.6597 16.7893L63.644 16.5819L62.6827 16.4599L61.7697 16.4111L60.9052 16.4355L60.0829 16.5209L59.303 16.6673L58.5654 16.8686L57.8641 17.1188L57.199 17.4116L56.5703 17.7472L55.9717 18.1193L55.4094 18.522L54.8834 18.9552L54.3937 19.4128L53.9403 19.8887L53.5231 20.3767L53.1483 20.8709L52.8097 21.3712L52.5134 21.8654L52.2595 22.3474L52.0479 22.8049L51.8786 23.2381L51.7517 23.6286L51.667 23.9703L51.6186 24.2448L51.6066 24.4278V24.501L51.5884 24.4278L48.2027 23.293L48.1906 23.2869ZM51.5763 24.4217C51.927 25.587 51.274 26.8194 50.1193 27.1733C48.9645 27.5272 47.7493 26.8682 47.3986 25.7029L51.5763 24.4278V24.4217Z" fill="black"/>
<path d="M35.7068 50.3697C35.6336 51.6155 34.5905 52.567 33.3766 52.4919C32.1628 52.4168 31.2417 51.3401 31.3149 50.0943L35.7128 50.3697H35.7068ZM38.964 36.4348L41.8065 39.8966L41.2697 40.3724L40.7695 40.8356L40.2999 41.2926L39.8607 41.7434L39.452 42.1816L39.0738 42.6135L38.7261 43.0329L38.4028 43.4461L38.1039 43.8467L37.8295 44.2411L37.5794 44.623L37.3537 44.9923L37.1463 45.3554L36.9572 45.706L36.7864 46.044L36.6339 46.3758L36.4997 46.6951L36.3777 47.0081L36.2679 47.3086L36.1703 47.5965L36.0849 47.8782L36.0117 48.1474L35.9507 48.4103L35.8958 48.6607L35.8531 48.9049L35.8165 49.1365L35.786 49.3619L35.7616 49.5747L35.7433 49.7813L35.725 49.9816L35.7128 50.1757L35.7007 50.3635L31.3027 50.088L31.3149 49.8627L31.3332 49.6185L31.3576 49.3494L31.3881 49.0614L31.4247 48.7609L31.4674 48.4416L31.5223 48.1036L31.5894 47.753L31.6687 47.3899L31.7602 47.0143L31.8639 46.6262L31.9859 46.2256L32.1201 45.8124L32.2726 45.3867L32.4434 44.9485L32.6325 44.5041L32.8399 44.0471L33.0717 43.5838L33.3218 43.1143L33.5962 42.6385L33.8951 42.1503L34.2184 41.6557L34.5661 41.1549L34.9382 40.6478L35.3408 40.1345L35.7677 39.6212L36.2252 39.1016L36.7132 38.5758L37.2317 38.0437L37.7807 37.5115L38.3601 36.9732L38.9701 36.4286L38.964 36.4348ZM38.964 36.4348C39.8912 35.6273 41.2819 35.7462 42.0688 36.704C42.8556 37.6618 42.7337 39.0891 41.8065 39.8966L38.964 36.4348Z" fill="white" fill-opacity="0.721569"/>
<path fill-rule="evenodd" clip-rule="evenodd" d="M46.5715 33.2437C48.0339 33.2437 49.2269 34.4338 49.2269 35.8991C49.2269 37.3644 48.0339 38.5546 46.5715 38.5546C45.1091 38.5546 43.916 37.3644 43.916 35.8991C43.916 34.4338 45.1091 33.2437 46.5715 33.2437Z" fill="white" fill-opacity="0.690196"/>
<path d="M51.5759 59.6624C51.6747 58.9196 52.4215 58.3906 53.2362 58.4807C54.0509 58.5764 54.631 59.2516 54.5261 59.9944L51.5759 59.6568V59.6624ZM46.1261 60.8273L48.6628 59.4092L48.885 59.7243L49.101 60.0001L49.3047 60.2364L49.496 60.439L49.675 60.6078L49.8416 60.7429L49.9959 60.8498L50.1317 60.9286L50.249 60.9848L50.3477 61.0186L50.428 61.0411L50.4897 61.0524L50.5452 61.058H50.5884L50.6316 61.0524L50.6748 61.0411L50.7242 61.0242L50.7798 61.0017L50.8415 60.968L50.9094 60.9229L50.9773 60.8667L51.0513 60.7991L51.1254 60.7204L51.1994 60.6303L51.2673 60.529L51.3352 60.4221L51.3969 60.3039L51.4525 60.1801L51.5019 60.0563L51.5389 59.9269L51.5698 59.7975L51.5883 59.6681L54.5385 60.0057L54.4891 60.2927L54.4212 60.5741L54.3348 60.8498L54.236 61.1199L54.1188 61.3844L53.983 61.6432L53.8287 61.8965L53.662 62.1441L53.4769 62.3804L53.2732 62.6055L53.0449 62.8194L52.798 63.0219L52.5326 63.2076L52.2425 63.3708L51.9339 63.5115L51.6006 63.6297L51.2488 63.7141L50.8847 63.7648L50.5082 63.7816L50.1255 63.7591L49.7429 63.6972L49.3664 63.5959L49.0022 63.4609L48.6443 63.2921L48.2986 63.0895L47.9653 62.8588L47.6382 62.5999L47.3235 62.3073L47.0149 61.9865L46.7124 61.6376L46.4162 61.255L46.1261 60.8442V60.8273ZM46.1261 60.8273C45.7002 60.1858 45.9163 59.3529 46.6199 58.959C47.3235 58.5707 48.2369 58.7677 48.6628 59.4092L46.1261 60.8273Z" fill="black"/>
<path d="M47.2354 23.59C47.2354 22.3215 48.4227 21.2939 49.8908 21.2939C51.359 21.2939 52.5463 22.3215 52.5463 23.59H47.2354ZM47.2354 26.9643V23.59H52.5463V26.9643H47.2354ZM52.5463 26.9643C52.5463 28.2328 51.359 29.2603 49.8908 29.2603C48.4227 29.2603 47.2354 28.2328 47.2354 26.9643H52.5463Z" fill="black"/>
<path d="M36.9266 87.3487C34.9576 86.9868 33.657 85.0928 34.0183 83.1144C34.3795 81.142 36.2703 79.8331 38.2393 80.195L36.9266 87.3487ZM65.3179 59.904L72.3509 61.6532L71.6103 64.3374L70.7552 66.8466L69.7978 69.1869L68.7441 71.3584L67.6 73.373L66.3776 75.2248L65.077 76.9257L63.7161 78.4759L62.3011 79.8753L60.8439 81.1359L59.3566 82.2578L57.8452 83.2471L56.3218 84.1156L54.7983 84.8636L53.287 85.5029L51.7936 86.0398L50.3304 86.4861L48.9033 86.848L47.5184 87.1315L46.1816 87.3487L44.9051 87.5055L43.7008 87.608L42.5687 87.6623L41.521 87.6804L40.5576 87.6684L39.6905 87.6322L38.9318 87.5839L38.2815 87.5236L37.7516 87.4633L37.3481 87.409L37.0832 87.3668L36.9266 87.3366L38.2393 80.1829H38.2212L38.3658 80.207L38.6307 80.2432L39.0101 80.2854L39.4918 80.3277L40.0759 80.3639L40.7503 80.388L41.5029 80.394L42.3339 80.382L43.2251 80.3397L44.1765 80.2613L45.176 80.1407L46.2178 79.9718L47.2956 79.7486L48.3975 79.4711L49.5235 79.1273L50.6616 78.7172L51.8057 78.2346L52.9437 77.6737L54.0758 77.0283L55.2018 76.2924L56.3097 75.46L57.3936 74.519L58.4534 73.4695L59.483 72.2993L60.4766 70.9965L61.428 69.5549L62.3312 67.9625L63.1802 66.2072L63.963 64.2831L64.6736 62.184L65.3058 59.8919L65.3179 59.904ZM65.3179 59.904C65.7996 57.9557 67.7626 56.7675 69.7075 57.25C71.6524 57.7326 72.8326 59.705 72.3569 61.6532L65.3239 59.904H65.3179Z" fill="black" fill-opacity="0.039216"/>
<path d="M57.1928 48.3881C57.8566 47.1434 58.5205 46.521 59.8482 46.521C61.3148 46.521 62.5037 47.6337 62.5037 49.0105C62.5037 51.5 59.8482 53.9895 57.1928 56.479C54.5373 53.9895 51.8818 51.5 51.8818 49.0105C51.8818 47.6337 53.0708 46.521 54.5373 46.521C55.865 46.521 56.5289 47.1434 57.1928 48.3881Z" fill="#FF5E27"/>
<path fill-rule="evenodd" clip-rule="evenodd" d="M54.1685 48.3017C53.3947 48.3017 53.0607 48.8187 53.0607 49.1238C53.0607 49.7508 53.431 50.581 54.3763 51.6933C55.0544 52.491 55.9111 53.3022 56.8612 54.1559C57.8113 53.3022 58.6681 52.491 59.3461 51.6933C60.2914 50.581 60.6617 49.7508 60.6617 49.1238C60.6617 48.8187 60.3278 48.3017 59.554 48.3017C59.1396 48.3017 58.9782 48.386 58.8813 48.4544C58.7413 48.5532 58.5419 48.7638 58.2468 49.2845C57.9673 49.7779 57.4369 50.0839 56.8612 50.0839C56.2856 50.0839 55.7552 49.7779 55.4756 49.2845C55.1806 48.7638 54.9812 48.5532 54.8411 48.4544C54.7443 48.386 54.5828 48.3017 54.1685 48.3017ZM49.8906 49.1238C49.8906 46.8006 51.9679 45.1934 54.1685 45.1934C55.1005 45.1934 55.9488 45.4061 56.6934 45.9318C56.7509 45.9724 56.8068 46.0141 56.8612 46.0571C56.9157 46.0141 56.9716 45.9724 57.029 45.9318C57.7736 45.4061 58.622 45.1934 59.554 45.1934C61.7545 45.1934 63.8318 46.8006 63.8318 49.1238C63.8318 50.8732 62.8557 52.4192 61.7815 53.6832C60.6985 54.9574 59.2819 56.2074 57.9725 57.3629L57.9216 57.4079C57.3188 57.9398 56.4037 57.9398 55.8009 57.4079L55.7499 57.3629C54.4405 56.2074 53.024 54.9574 51.941 53.6832C50.8667 52.4192 49.8906 50.8732 49.8906 49.1238Z" fill="black"/>
<path d="M42.5883 48.3881C43.2521 47.1434 43.916 46.521 45.2437 46.521C46.7103 46.521 47.8992 47.6337 47.8992 49.0105C47.8992 51.5 45.2437 53.9895 42.5883 56.479C39.9328 53.9895 37.2773 51.5 37.2773 49.0105C37.2773 47.6337 38.4663 46.521 39.9328 46.521C41.2605 46.521 41.9244 47.1434 42.5883 48.3881Z" fill="#FF5E27"/>
<path fill-rule="evenodd" clip-rule="evenodd" d="M40.0243 48.3017C39.2874 48.3017 38.9694 48.8187 38.9694 49.1238C38.9694 49.7508 39.322 50.581 40.2223 51.6933C40.868 52.491 41.684 53.3022 42.5889 54.1559C43.4937 53.3022 44.3097 52.491 44.9554 51.6933C45.8557 50.581 46.2084 49.7508 46.2084 49.1238C46.2084 48.8187 45.8903 48.3017 45.1534 48.3017C44.7587 48.3017 44.605 48.386 44.5128 48.4544C44.3794 48.5532 44.1895 48.7638 43.9085 49.2845L42.5889 48.5297L41.2692 49.2845C40.9882 48.7638 40.7983 48.5532 40.665 48.4544C40.5727 48.386 40.419 48.3017 40.0243 48.3017ZM42.5889 46.0571C42.537 46.0141 42.4838 45.9724 42.4291 45.9318C41.7199 45.4061 40.9119 45.1934 40.0243 45.1934C37.9286 45.1934 35.9502 46.8006 35.9502 49.1238C35.9502 50.8732 36.8798 52.4192 37.9029 53.6832C38.9343 54.9574 40.2834 56.2074 41.5305 57.3629L41.579 57.4079C42.1531 57.9398 43.0246 57.9398 43.5987 57.4079L43.6473 57.3629C44.8943 56.2074 46.2434 54.9574 47.2748 53.6832C48.2979 52.4192 49.2275 50.8732 49.2275 49.1238C49.2275 46.8006 47.2491 45.1934 45.1534 45.1934C44.2658 45.1934 43.4578 45.4061 42.7486 45.9318C42.694 45.9724 42.6407 46.0141 42.5889 46.0571Z" fill="black"/>
</svg>
