<svg width="66" height="66" viewBox="0 0 66 66" fill="none" xmlns="http://www.w3.org/2000/svg">
<g opacity="0.5" filter="url(#filter0_i_161_1785)">
<rect width="66" height="66" rx="33" fill="#EFEFEF"/>
</g>
<circle cx="33" cy="33" r="26" fill="#33CC66"/>
<path fill-rule="evenodd" clip-rule="evenodd" d="M40.8675 47.0656C34.3019 54.8439 22.8914 52.4897 23.7083 49.9258C24.5251 47.3618 23.4132 43.8877 23.4132 43.8877C19.882 36.2606 20.2764 33.5609 20.2764 33.5609C19.7112 22.975 29.0998 21.4724 32.4478 21.2719C33.1714 21.2287 33.6125 21.2472 33.6125 21.2472C48.8244 20.8183 47.6163 39.0683 40.8675 47.0656Z" fill="#FFCC00"/>
<path d="M22.7124 49.5059L24.8221 50.1776L24.8314 50.1132L24.8252 50.0396L24.819 50.015L24.8499 50.0549L24.9424 50.1469L25.1028 50.2665L25.3279 50.4015L25.6148 50.5395L25.9571 50.6745L26.3519 50.8002L26.7899 50.9106L27.2711 51.0057L27.7893 51.0793L28.3383 51.1315L28.9181 51.1591L29.5227 51.1621L30.1488 51.1376L30.7934 51.0824L31.4535 50.9965L32.1228 50.8769L32.8013 50.7235L33.4861 50.5334L34.1708 50.3064L34.8555 50.0396L35.5372 49.7298L36.2126 49.3802L36.8789 48.9845L37.5327 48.5428L38.1712 48.0552L38.7912 47.5154L39.3926 46.9265L39.9725 46.2824L41.6658 47.7117L40.9965 48.46L40.2963 49.1471L39.5746 49.7758L38.8313 50.3463L38.0694 50.8615L37.2952 51.3216L36.5118 51.7295L35.7222 52.0884L34.9295 52.3981L34.1369 52.6619L33.3473 52.8827L32.5669 53.0606L31.7958 53.1987L31.0371 53.2968L30.2937 53.3612L29.5689 53.3919L28.8657 53.3888L28.1871 53.3551L27.5332 53.2937L26.9102 53.2048L26.318 53.0882L25.7567 52.9472L25.2323 52.7815L24.7419 52.5883L24.2885 52.3705L23.8721 52.119L23.4958 51.8307L23.1627 51.4903L22.8851 51.0854L22.6939 50.6008L22.6322 50.058L22.7247 49.5151L22.7124 49.5059ZM22.7124 49.5059C22.8975 48.9232 23.5205 48.5981 24.1034 48.7851C24.6864 48.9722 25.0072 49.5949 24.8221 50.1776L22.7124 49.5059ZM22.4718 44.3072L24.4828 43.3748L24.5322 43.5037L24.5383 43.5251L24.5476 43.5589L24.563 43.6141L24.5846 43.6877L24.6093 43.7797L24.6401 43.887L24.674 44.0128L24.708 44.1508L24.745 44.3042L24.7851 44.4728L24.8252 44.6538L24.8653 44.847L24.9054 45.0525L24.9455 45.2672L24.9825 45.4911L25.0195 45.7242L25.0534 45.9665L25.0843 46.218L25.112 46.4756L25.1336 46.7394L25.1521 47.0093L25.1645 47.2853L25.1706 47.5645V47.8466L25.1614 48.1319L25.146 48.4202L25.1213 48.7115L25.0843 49.0029L25.038 49.2973L24.9794 49.5918L24.9085 49.8862L24.8221 50.1776L22.7124 49.5059L22.7679 49.3127L22.8173 49.1133L22.8574 48.9078L22.8913 48.6962L22.9191 48.4784L22.9376 48.2576L22.9499 48.0337L22.9561 47.8067V47.5798L22.9499 47.3528L22.9406 47.1259L22.9252 46.902L22.9067 46.6811L22.8851 46.4634L22.8604 46.2487L22.8327 46.0401L22.8018 45.8377L22.7679 45.6445L22.734 45.4574L22.7001 45.2795L22.6661 45.1139L22.6322 44.9574L22.5983 44.8133L22.5674 44.6814L22.5366 44.5618L22.5088 44.4575L22.4842 44.3686L22.4626 44.295L22.4471 44.2367L22.4348 44.1968L22.4286 44.1723L22.478 44.3011L22.4718 44.3072ZM22.4225 44.1784C22.2374 43.5957 22.5582 42.97 23.1411 42.786C23.7241 42.5989 24.3471 42.9209 24.5322 43.5037L22.4225 44.1784ZM19.2548 33.6338L21.4663 33.5142L21.4571 33.732L21.4601 33.7013V33.7166L21.4571 33.7473L21.454 33.7964V33.8639V33.9497L21.4571 34.054L21.4632 34.1798L21.4756 34.3239L21.491 34.4895L21.5126 34.6766L21.5434 34.8821L21.5804 35.1122L21.6267 35.3637L21.6822 35.6366L21.747 35.9311L21.8241 36.25L21.9105 36.5935L22.0092 36.9616L22.1233 37.3542L22.2497 37.7713L22.3916 38.213L22.5489 38.6792L22.7247 39.173L22.916 39.6913L23.1257 40.2372L23.3539 40.8108L23.6038 41.4119L23.8721 42.0407L24.162 42.697L24.4736 43.381L22.4626 44.3134L22.1387 43.6049L21.8395 42.924L21.5588 42.2707L21.2998 41.645L21.0592 41.0469L20.8402 40.4734L20.6366 39.9275L20.4516 39.406L20.285 38.9092L20.1339 38.4369L19.9982 37.9891L19.8748 37.5658L19.7668 37.164L19.6712 36.7868L19.5879 36.431L19.5139 36.0967L19.4522 35.7838L19.3998 35.4925L19.3566 35.2226L19.3196 34.9741L19.2918 34.7441L19.2703 34.5325L19.2548 34.3423L19.2456 34.1706L19.2394 34.0172L19.2363 33.8823V33.7626L19.2394 33.6614L19.2425 33.5786L19.2487 33.5111L19.2548 33.4621L19.261 33.4161L19.2517 33.6338H19.2548ZM19.2641 33.4161C19.3504 32.8088 19.9149 32.3886 20.5194 32.4775C21.124 32.5665 21.5434 33.1278 21.4571 33.735L19.2641 33.4161ZM32.3819 20.2522L32.5145 22.4666L32.2061 22.4881L31.8668 22.5188L31.4997 22.5586L31.108 22.6108L30.6947 22.6752L30.2598 22.7519L29.8095 22.8439L29.3469 22.9512L28.8749 23.077L28.3969 23.2211L27.9157 23.3837L27.4315 23.5677L26.9503 23.7732L26.4753 24.0032L26.0065 24.2547L25.5469 24.5308L25.1028 24.8344L24.674 25.1626L24.2607 25.5184L23.869 25.9048L23.4989 26.3219L23.1504 26.7697L22.8296 27.2513L22.5335 27.7696L22.2683 28.3278L22.0338 28.9259L21.8364 29.5669L21.6761 30.2539L21.5558 30.99L21.4787 31.7783L21.4509 32.6186L21.4725 33.5173L19.261 33.6369L19.2363 32.6125L19.2703 31.6372L19.3597 30.7078L19.5047 29.8245L19.7021 28.9872L19.9457 28.1959L20.2357 27.4476L20.5688 26.7452L20.942 26.0858L21.3522 25.4724L21.7933 24.9019L22.2652 24.3744L22.7617 23.8867L23.2768 23.442L23.8104 23.034L24.3564 22.6629L24.9115 22.3286L25.4729 22.025L26.0373 21.752L26.6049 21.5097L27.1693 21.295L27.7276 21.1049L28.2766 20.9392L28.8163 20.7951L29.3407 20.6724L29.8496 20.5681L30.3369 20.4822L30.8027 20.4117L31.2437 20.3534L31.657 20.3074L32.0395 20.2737L32.388 20.2491L32.3819 20.2522ZM32.3819 20.2522C32.9926 20.2154 33.5169 20.6816 33.5539 21.2919C33.5909 21.9023 33.1252 22.4298 32.5145 22.4636L32.3819 20.2491V20.2522ZM33.5724 20.2246L33.6341 22.4421H33.5601H33.5632H33.5601H33.557H33.5477H33.5354H33.5231H33.5076H33.4891H33.4706H33.449H33.4244H33.3966H33.3689H33.338H33.3041H33.2702H33.2331H33.193H33.1529H33.1098H33.0635H33.0172H32.9679L32.9185 22.4452L32.8661 22.4482L32.8137 22.4513L32.7581 22.4544L32.6995 22.4574L32.6409 22.4605L32.5793 22.4636L32.5176 22.4666L32.3849 20.2522L32.4559 20.2491L32.5237 20.2461L32.5916 20.243L32.6564 20.2399L32.7211 20.2369L32.7828 20.2338L32.8414 20.2307L32.9 20.2277L32.9555 20.2246H33.008H33.0604H33.1098H33.1591H33.2054H33.2486H33.2917H33.3318H33.3689H33.4059H33.4398H33.4706H33.4984H33.5262H33.5508H33.5724H33.5909H33.6063H33.6218H33.6341H33.6464H33.6495H33.6526H33.5786H33.5724ZM33.6464 20.2246C34.2571 20.2491 34.7321 20.7644 34.7105 21.3778C34.6859 21.9912 34.1708 22.4666 33.5601 22.4421L33.6464 20.2246ZM41.6534 47.7117L39.9601 46.2824L40.5307 45.5617L41.0705 44.7857L41.5794 43.9606L42.0544 43.0896L42.4924 42.1787L42.8933 41.234L43.2511 40.2618L43.5657 39.265L43.8341 38.2528L44.0562 37.2284L44.2289 36.201L44.3492 35.1735L44.417 34.1522L44.4294 33.1431L44.3862 32.1494L44.2844 31.1802L44.124 30.2386L43.905 29.3307L43.6243 28.4628L43.282 27.6408L42.8779 26.8648L42.4122 26.141L41.8848 25.4724L41.2895 24.862L40.6263 24.3099L39.8892 23.8192L39.0718 23.396L38.1712 23.0402L37.1811 22.7611L36.0985 22.5648L34.9172 22.4574L33.6341 22.4452L33.5724 20.2277L35.0282 20.243L36.3977 20.3688L37.6808 20.6019L38.8775 20.9392L39.991 21.3778L41.015 21.9115L41.9526 22.5341L42.7977 23.2365L43.5534 24.0124L44.2196 24.8559L44.7995 25.7576L45.293 26.7084L45.7063 27.7021L46.0394 28.7327L46.2985 29.7939L46.4835 30.8796L46.6007 31.9868L46.6501 33.1094L46.6378 34.2411L46.5637 35.379L46.4311 36.5169L46.243 37.6517L45.9993 38.7773L45.7032 39.8906L45.3577 40.9856L44.963 42.056L44.5219 43.0988L44.0346 44.1079L43.504 45.0801L42.9304 46.0094L42.3166 46.8897L41.6627 47.7178L41.6534 47.7117ZM41.6534 47.7117C41.2586 48.1809 40.5616 48.2392 40.0928 47.8436C39.6239 47.4479 39.5653 46.7486 39.9601 46.2794L41.6534 47.7086V47.7117Z" fill="black"/>
<path fill-rule="evenodd" clip-rule="evenodd" d="M32.4745 19.5474C35.2313 17.4994 39.3315 19.7421 42.9272 15.3632C35.6173 11.4376 32.0156 18.0228 32.4745 19.5474Z" fill="#33CC66"/>
<path d="M42.3064 16.4919L43.3574 14.5106L43.6903 16.2182L43.3112 16.663L42.9228 17.0704L42.5283 17.4406L42.1307 17.7734L41.7269 18.0751L41.3201 18.3426L40.9101 18.5789L40.5002 18.7873L40.0934 18.9677L39.6865 19.1232L39.2827 19.2539L38.8851 19.3659L38.4937 19.4592L38.1084 19.5369L37.7293 19.6022L37.3594 19.6551L36.9988 19.7018L36.6443 19.7422L36.3022 19.7795L35.9693 19.8137L35.6457 19.848L35.3344 19.8853L35.0354 19.9257L34.7488 19.9724L34.4744 20.0252L34.2125 20.0875L33.9659 20.159L33.7316 20.2399L33.5097 20.3332L33.297 20.4389L33.0936 20.5571L32.8963 20.694L31.571 18.8869L31.9069 18.6567L32.2522 18.4545L32.6004 18.2835L32.9518 18.1373L33.3063 18.016L33.6607 17.9164L34.0121 17.8325L34.3635 17.764L34.7118 17.708L35.057 17.6614L35.3991 17.621L35.7382 17.5836L36.0741 17.5494L36.407 17.5152L36.7368 17.4779L37.0635 17.4374L37.3872 17.3908L37.7077 17.3379L38.0252 17.2757L38.3365 17.2011L38.6447 17.114L38.9498 17.0144L39.2519 16.8994L39.554 16.7656L39.8529 16.6132L40.1519 16.439L40.4509 16.2431L40.7499 16.0191L41.0519 15.7672L41.354 15.4842L41.6591 15.1669L41.9643 14.8092L42.2971 16.5168L42.3064 16.4919ZM41.9735 14.7843C42.365 14.3053 43.0646 14.2369 43.5393 14.6319C44.014 15.0269 44.0818 15.7361 43.6903 16.2151L41.9735 14.7843ZM31.571 18.8713L32.8963 20.6784L31.1703 20.0999L31.0994 19.7422L31.084 19.4032L31.1086 19.0735L31.1641 18.7438L31.2473 18.411L31.3583 18.072L31.4939 17.7298L31.6573 17.3815L31.8453 17.03L32.058 16.6754L32.2984 16.3208L32.5635 15.9694L32.8563 15.6241L33.1768 15.2882L33.5251 14.9647L33.9011 14.6537L34.3049 14.3613L34.7364 14.0907L35.1988 13.845L35.6888 13.6304L36.2067 13.4469L36.7491 13.3007L37.3163 13.1949L37.908 13.1327L38.5214 13.1172L39.1564 13.1514L39.8129 13.2354L40.4879 13.3753L41.1783 13.5713L41.8872 13.8232L42.6115 14.1343L43.3544 14.5075L42.3033 16.4888L41.6776 16.1715L41.0797 15.9134L40.5095 15.7112L39.967 15.5588L39.4492 15.4531L38.9591 15.3908L38.4937 15.366L38.0529 15.3784L37.6337 15.4219L37.2361 15.4966L36.8601 15.5992L36.5026 15.7268L36.1635 15.8761L35.843 16.0471L35.5378 16.2369L35.2512 16.4421L34.983 16.663L34.7333 16.8962L34.5022 17.1389L34.2895 17.3877L34.0984 17.6396L33.9258 17.8947L33.7748 18.1466L33.6453 18.3923L33.5374 18.6256L33.4511 18.8464L33.3864 19.0455L33.3433 19.2197L33.3186 19.3596L33.3124 19.4529V19.4903L33.3032 19.4529L31.5771 18.8744L31.571 18.8713ZM33.297 19.4498C33.4758 20.0439 33.1429 20.6722 32.5542 20.8526C31.9655 21.033 31.346 20.6971 31.1672 20.103L33.297 19.4529V19.4498Z" fill="black"/>
<path d="M25.2042 32.6783C25.1669 33.3134 24.6351 33.7985 24.0163 33.7602C23.3974 33.7219 22.9279 33.173 22.9652 32.5379L25.2073 32.6783H25.2042ZM26.8647 25.5742L28.3138 27.3391L28.0402 27.5816L27.7852 27.8178L27.5458 28.0508L27.3219 28.2805L27.1135 28.5039L26.9207 28.7241L26.7435 28.938L26.5786 29.1486L26.4263 29.3529L26.2863 29.5539L26.1588 29.7486L26.0438 29.9369L25.9381 30.122L25.8417 30.3007L25.7546 30.473L25.6768 30.6422L25.6084 30.8049L25.5462 30.9645L25.4903 31.1177L25.4405 31.2645L25.397 31.4081L25.3597 31.5454L25.3286 31.6794L25.3006 31.807L25.2788 31.9315L25.2601 32.0496L25.2446 32.1645L25.2322 32.273L25.2228 32.3783L25.2135 32.4804L25.2073 32.5794L25.2011 32.6751L22.959 32.5347L22.9652 32.4198L22.9745 32.2953L22.987 32.1581L23.0025 32.0113L23.0212 31.8581L23.0429 31.6953L23.0709 31.523L23.1051 31.3443L23.1456 31.1592L23.1922 30.9677L23.2451 30.7698L23.3073 30.5656L23.3757 30.355L23.4534 30.1379L23.5405 29.9145L23.6369 29.6879L23.7426 29.455L23.8608 29.2188L23.9883 28.9795L24.1282 28.7369L24.2806 28.488L24.4454 28.2359L24.6227 27.9805L24.8124 27.722L25.0176 27.4603L25.2353 27.1986L25.4685 26.9338L25.7173 26.6657L25.9816 26.3944L26.2615 26.1231L26.5569 25.8487L26.8678 25.571L26.8647 25.5742ZM26.8647 25.5742C27.3374 25.1625 28.0464 25.2232 28.4476 25.7114C28.8487 26.1997 28.7865 26.9274 28.3138 27.3391L26.8647 25.5742Z" fill="white" fill-opacity="0.721569"/>
<path fill-rule="evenodd" clip-rule="evenodd" d="M30.7424 23.9473C31.488 23.9473 32.0962 24.554 32.0962 25.301C32.0962 26.048 31.488 26.6548 30.7424 26.6548C29.9969 26.6548 29.3887 26.048 29.3887 25.301C29.3887 24.554 29.9969 23.9473 30.7424 23.9473Z" fill="white" fill-opacity="0.690196"/>
<path d="M33.2937 37.4157C33.3441 37.037 33.7248 36.7673 34.1401 36.8132C34.5555 36.862 34.8512 37.2062 34.7977 37.5849L33.2937 37.4128V37.4157ZM30.5154 38.0095L31.8086 37.2866L31.9219 37.4472L32.032 37.5878L32.1358 37.7083L32.2334 37.8115L32.3246 37.8976L32.4096 37.9665L32.4882 38.021L32.5575 38.0611L32.6172 38.0898L32.6676 38.107L32.7085 38.1185L32.7399 38.1243L32.7683 38.1271H32.7903L32.8123 38.1243L32.8343 38.1185L32.8595 38.1099L32.8878 38.0984L32.9193 38.0812L32.9539 38.0583L32.9885 38.0296L33.0263 37.9952L33.064 37.955L33.1018 37.9091L33.1364 37.8575L33.171 37.8029L33.2025 37.7427L33.2308 37.6796L33.256 37.6165L33.2748 37.5505L33.2906 37.4845L33.3 37.4185L34.804 37.5906L34.7789 37.737L34.7443 37.8804L34.7002 38.021L34.6499 38.1587L34.5901 38.2935L34.5209 38.4255L34.4422 38.5546L34.3572 38.6808L34.2628 38.8013L34.159 38.9161L34.0426 39.0251L33.9167 39.1283L33.7814 39.223L33.6335 39.3062L33.4762 39.3779L33.3063 39.4382L33.127 39.4812L32.9413 39.507L32.7494 39.5156L32.5543 39.5042L32.3592 39.4726L32.1673 39.421L31.9816 39.3521L31.7992 39.266L31.6229 39.1628L31.453 39.0451L31.2863 38.9132L31.1258 38.764L30.9685 38.6005L30.8143 38.4226L30.6633 38.2275L30.5154 38.0181V38.0095ZM30.5154 38.0095C30.2983 37.6825 30.4084 37.2579 30.7671 37.057C31.1258 36.8591 31.5915 36.9595 31.8086 37.2866L30.5154 38.0095Z" fill="black"/>
<path d="M31.084 19.026C31.084 18.3793 31.6893 17.8555 32.4378 17.8555C33.1862 17.8555 33.7915 18.3793 33.7915 19.026H31.084ZM31.084 20.7462V19.026H33.7915V20.7462H31.084ZM33.7915 20.7462C33.7915 21.3929 33.1862 21.9168 32.4378 21.9168C31.6893 21.9168 31.084 21.3929 31.084 20.7462H33.7915Z" fill="black"/>
<path d="M25.8259 51.5305C24.8221 51.346 24.159 50.3805 24.3432 49.3719C24.5274 48.3663 25.4913 47.699 26.4951 47.8835L25.8259 51.5305ZM40.2999 37.5391L43.8854 38.4309L43.5078 39.7993L43.0719 41.0785L42.5838 42.2716L42.0466 43.3786L41.4633 44.4057L40.8402 45.3497L40.1771 46.2169L39.4833 47.0072L38.7619 47.7206L38.019 48.3632L37.2608 48.9352L36.4903 49.4395L35.7136 49.8823L34.937 50.2636L34.1665 50.5896L33.4052 50.8633L32.6592 51.0908L31.9317 51.2753L31.2256 51.4198L30.5441 51.5305L29.8934 51.6105L29.2794 51.6628L28.7023 51.6904L28.1681 51.6997L27.677 51.6935L27.2349 51.6751L26.8481 51.6505L26.5166 51.6197L26.2465 51.589L26.0408 51.5613L25.9057 51.5398L25.8259 51.5244L26.4951 47.8774H26.4859L26.5596 47.8897L26.6947 47.9081L26.8881 47.9297L27.1336 47.9512L27.4314 47.9696L27.7752 47.9819L28.1589 47.985L28.5826 47.9789L29.0369 47.9573L29.5219 47.9174L30.0315 47.8559L30.5626 47.7698L31.1121 47.656L31.6738 47.5145L32.2479 47.3393L32.8281 47.1302L33.4113 46.8842L33.9915 46.5982L34.5686 46.2692L35.1427 45.894L35.7075 45.4696L36.2601 44.9899L36.8003 44.4549L37.3253 43.8583L37.8318 43.1941L38.3168 42.4592L38.7773 41.6474L39.2101 40.7525L39.6092 39.7716L39.9714 38.7015L40.2937 37.533L40.2999 37.5391ZM40.2999 37.5391C40.5455 36.5459 41.5462 35.9401 42.5377 36.1861C43.5293 36.4321 44.1309 37.4377 43.8884 38.4309L40.3029 37.5391H40.2999Z" fill="black" fill-opacity="0.039216"/>
<path d="M36.1587 31.6682C36.4971 31.0336 36.8356 30.7163 37.5125 30.7163C38.2601 30.7163 38.8662 31.2836 38.8662 31.9855C38.8662 33.2546 37.5125 34.5238 36.1587 35.7929C34.8049 34.5238 33.4512 33.2546 33.4512 31.9855C33.4512 31.2836 34.0573 30.7163 34.8049 30.7163C35.4818 30.7163 35.8203 31.0336 36.1587 31.6682Z" fill="#FF5E27"/>
<path fill-rule="evenodd" clip-rule="evenodd" d="M34.6164 31.6237C34.2219 31.6237 34.0517 31.8873 34.0517 32.0428C34.0517 32.3624 34.2405 32.7857 34.7224 33.3527C35.068 33.7594 35.5048 34.173 35.9892 34.6082C36.4736 34.173 36.9103 33.7594 37.256 33.3527C37.7379 32.7857 37.9267 32.3624 37.9267 32.0428C37.9267 31.8873 37.7564 31.6237 37.362 31.6237C37.1507 31.6237 37.0684 31.6667 37.019 31.7015C36.9476 31.7519 36.846 31.8593 36.6956 32.1248C36.553 32.3763 36.2826 32.5323 35.9892 32.5323C35.6957 32.5323 35.4253 32.3763 35.2828 32.1248C35.1324 31.8593 35.0307 31.7519 34.9593 31.7015C34.91 31.6667 34.8277 31.6237 34.6164 31.6237ZM32.4355 32.0428C32.4355 30.8584 33.4946 30.0391 34.6164 30.0391C35.0915 30.0391 35.524 30.1475 35.9037 30.4155C35.9329 30.4362 35.9614 30.4575 35.9892 30.4794C36.0169 30.4575 36.0454 30.4362 36.0747 30.4155C36.4543 30.1475 36.8868 30.0391 37.362 30.0391C38.4838 30.0391 39.5428 30.8584 39.5428 32.0428C39.5428 32.9346 39.0452 33.7228 38.4975 34.3672C37.9454 35.0168 37.2233 35.6541 36.5557 36.2431L36.5298 36.2661C36.2224 36.5373 35.7559 36.5373 35.4486 36.2661L35.4226 36.2431C34.7551 35.6541 34.0329 35.0168 33.4808 34.3672C32.9332 33.7228 32.4355 32.9346 32.4355 32.0428Z" fill="black"/>
<path d="M28.7134 31.6682C29.0518 31.0336 29.3903 30.7163 30.0672 30.7163C30.8148 30.7163 31.4209 31.2836 31.4209 31.9855C31.4209 33.2546 30.0672 34.5238 28.7134 35.7929C27.3596 34.5238 26.0059 33.2546 26.0059 31.9855C26.0059 31.2836 26.612 30.7163 27.3596 30.7163C28.0365 30.7163 28.375 31.0336 28.7134 31.6682Z" fill="#FF5E27"/>
<path fill-rule="evenodd" clip-rule="evenodd" d="M27.4051 31.6237C27.0294 31.6237 26.8673 31.8873 26.8673 32.0428C26.8673 32.3624 27.0471 32.7857 27.5061 33.3527C27.8353 33.7594 28.2512 34.173 28.7125 34.6082C29.1738 34.173 29.5898 33.7594 29.919 33.3527C30.378 32.7857 30.5578 32.3624 30.5578 32.0428C30.5578 31.8873 30.3956 31.6237 30.02 31.6237C29.8188 31.6237 29.7404 31.6667 29.6934 31.7015C29.6254 31.7519 29.5285 31.8593 29.3853 32.1248L28.7125 31.74L28.0398 32.1248C27.8965 31.8593 27.7997 31.7519 27.7317 31.7015C27.6847 31.6667 27.6063 31.6237 27.4051 31.6237ZM28.7125 30.4794C28.6861 30.4575 28.659 30.4362 28.6311 30.4155C28.2695 30.1475 27.8576 30.0391 27.4051 30.0391C26.3367 30.0391 25.3281 30.8584 25.3281 32.0428C25.3281 32.9346 25.802 33.7228 26.3236 34.3672C26.8494 35.0168 27.5372 35.6541 28.173 36.2431L28.1977 36.2661C28.4904 36.5373 28.9347 36.5373 29.2274 36.2661L29.2521 36.2431C29.8879 35.6541 30.5756 35.0168 31.1014 34.3672C31.623 33.7228 32.097 32.9346 32.097 32.0428C32.097 30.8584 31.0884 30.0391 30.02 30.0391C29.5674 30.0391 29.1556 30.1475 28.794 30.4155C28.7661 30.4362 28.739 30.4575 28.7125 30.4794Z" fill="black"/>
<defs>
<filter id="filter0_i_161_1785" x="0" y="0" width="66" height="83" filterUnits="userSpaceOnUse" color-interpolation-filters="sRGB">
<feFlood flood-opacity="0" result="BackgroundImageFix"/>
<feBlend mode="normal" in="SourceGraphic" in2="BackgroundImageFix" result="shape"/>
<feColorMatrix in="SourceAlpha" type="matrix" values="0 0 0 0 0 0 0 0 0 0 0 0 0 0 0 0 0 0 127 0" result="hardAlpha"/>
<feMorphology radius="17" operator="dilate" in="SourceAlpha" result="effect1_innerShadow_161_1785"/>
<feOffset dy="19"/>
<feGaussianBlur stdDeviation="17"/>
<feComposite in2="hardAlpha" operator="arithmetic" k2="-1" k3="1"/>
<feColorMatrix type="matrix" values="0 0 0 0 0 0 0 0 0 0 0 0 0 0 0 0 0 0 0.25 0"/>
<feBlend mode="normal" in2="shape" result="effect1_innerShadow_161_1785"/>
</filter>
</defs>
</svg>
