<svg width="32" height="32" viewBox="0 0 32 32" fill="none" xmlns="http://www.w3.org/2000/svg">
<path fill-rule="evenodd" clip-rule="evenodd" d="M29.5277 3.00659C29.5643 2.66067 29.2002 2.42039 28.9085 2.59805L3.07305 18.3358C2.23849 18.8441 2.27599 20.0961 3.13941 20.551L7.19985 22.6901L21.9836 10.0573C22.4592 9.65088 23.1547 9.66866 23.61 10.0989C24.0653 10.5291 24.1396 11.2387 23.7837 11.7583L20.1625 17.0451C20.1562 17.0543 20.1497 17.0634 20.1432 17.0724L13.8791 25.7188L23.129 29.2758C24.8897 29.9529 26.8003 28.7459 27.0035 26.8284L29.5277 3.00659ZM27.6479 0.420453C29.6895 -0.823161 32.2386 0.858851 31.9821 3.28025L29.4579 27.1021C29.0806 30.6632 25.5322 32.9046 22.2624 31.6473L11.7839 27.6178C10.8611 27.263 10.527 26.0999 11.1149 25.2886L16.1503 18.338L8.278 25.065C7.82143 25.4551 7.18178 25.5276 6.65319 25.2491L2.01155 22.8039C-0.578705 21.4393 -0.691211 17.6833 1.81249 16.1582L27.6479 0.420453Z" fill="#FFCC00"/>
</svg>
