<svg width="13" height="5" viewBox="0 0 13 5" fill="none" xmlns="http://www.w3.org/2000/svg">
<path fill-rule="evenodd" clip-rule="evenodd" d="M0 0.333809C0 0.149451 0.115751 0 0.258537 0H9.70732C10.4212 0 11 0.747256 11 1.66904V4.66619C11 4.85055 10.8842 5 10.7415 5C10.5987 5 10.4829 4.85055 10.4829 4.66619V1.66904C10.4829 1.11597 10.1357 0.667617 9.70732 0.667617H0.258537C0.115751 0.667617 0 0.518166 0 0.333809Z" fill="#FFCC00"/>
<path fill-rule="evenodd" clip-rule="evenodd" d="M9.07359 3.0871C9.18114 2.98056 9.36721 2.97034 9.48918 3.06428L11.0885 4.296L12.4982 3.0746C12.6136 2.97457 12.8001 2.97523 12.9146 3.07607C13.0291 3.17691 13.0284 3.33975 12.9129 3.43978L11.1122 5L9.09972 3.4501C8.97774 3.35616 8.96605 3.19364 9.07359 3.0871Z" fill="#FFCC00"/>
</svg>
