<svg width="20" height="13" viewBox="0 0 20 13" fill="none" xmlns="http://www.w3.org/2000/svg">
<path fill-rule="evenodd" clip-rule="evenodd" d="M2.11712 5.7807C3.92884 7.95611 5.65431 9.24734 7.23101 9.93324C8.90538 10.6616 10.4513 10.7255 11.8426 10.3988C14.4729 9.78112 16.6594 7.73342 17.9698 5.8226C16.3623 3.97222 14.7653 2.87161 13.2565 2.28407C11.6437 1.65606 10.0817 1.59443 8.62678 1.8832C5.93506 2.41746 3.58897 4.16022 2.11712 5.7807ZM13.9057 0.840142C15.8558 1.59949 17.7978 3.02114 19.6595 5.29102L20 5.70612L19.7188 6.15803C18.3493 8.35912 15.7192 11.1027 12.2541 11.9164C10.4939 12.3298 8.55053 12.235 6.5188 11.3512C4.50188 10.4738 2.43894 8.8375 0.3742 6.23016L0 5.75762L0.382699 5.29102C1.94852 3.3819 4.79642 1.04304 8.27597 0.352407C10.0353 0.00320667 11.9492 0.0782928 13.9057 0.840142Z" fill="#FF5F29"/>
<path fill-rule="evenodd" clip-rule="evenodd" d="M11.1547 0.69079C11.6117 0.773478 11.9019 1.18462 11.8028 1.6091L11.2977 3.77364L13.7991 3.72063C14.2667 3.71072 14.6465 4.05317 14.6474 4.48551C14.6483 4.91786 14.2699 5.27637 13.8022 5.28628L9.19694 5.38387L10.1478 1.30965C10.2468 0.885176 10.6976 0.608101 11.1547 0.69079Z" fill="#FF5F29"/>
<path fill-rule="evenodd" clip-rule="evenodd" d="M11.1698 0.682029C10.6202 0.560839 10.0351 0.531704 9.4373 0.610711C6.88417 0.94814 5.06671 3.13034 5.37788 5.4848C5.68905 7.83926 8.01102 9.47438 10.5642 9.13695C13.0496 8.80846 14.8379 6.73165 14.6438 4.44959L12.9444 4.49939C13.1332 5.99218 11.9788 7.37268 10.3593 7.58672C8.73455 7.80145 7.25693 6.76092 7.05891 5.26263C6.8609 3.76434 8.01746 2.37566 9.64218 2.16094C10.0447 2.10774 10.4382 2.13158 10.8054 2.22034L11.1698 0.682029Z" fill="#FF5F29"/>
</svg>
