<svg width="24" height="24" viewBox="0 0 24 24" fill="none" xmlns="http://www.w3.org/2000/svg">
<path fill-rule="evenodd" clip-rule="evenodd" d="M13.0227 0.930232C13.0227 0.416479 12.5654 0 12.0014 0C11.4374 0 10.9801 0.416479 10.9801 0.930233V10.9791H0.930233C0.416479 10.9791 0 11.4363 0 12.0003C0 12.5644 0.416479 13.0216 0.930233 13.0216H10.9801V23.0698C10.9801 23.5835 11.4374 24 12.0014 24C12.5654 24 13.0227 23.5835 13.0227 23.0698V13.0216H23.0698C23.5835 13.0216 24 12.5644 24 12.0003C24 11.4363 23.5835 10.9791 23.0698 10.9791H13.0227V0.930232Z" fill="#33CC66"/>
</svg>
