<svg width="32" height="32" viewBox="0 0 32 32" fill="none" xmlns="http://www.w3.org/2000/svg">
<path fill-rule="evenodd" clip-rule="evenodd" d="M19.2282 0.582463C18.0995 0.144328 16.9926 -0.00707675 15.9969 0.000252241C15.0027 -0.0064114 13.898 0.145269 12.7717 0.582506C10.9172 1.30239 9.11076 2.75564 7.67905 5.3139C7.17487 6.21479 7.0735 7.20135 7.02522 7.95339C6.92102 9.57635 6.28379 11.9222 5.16226 14.5306C4.04886 17.1201 2.49378 19.8853 0.623919 22.3413C-0.129968 23.3315 -0.145829 24.5693 0.284453 25.5254C0.71847 26.4898 1.67878 27.3124 2.98262 27.3124H10.4016C10.4736 28.4649 10.9734 29.4641 11.7245 30.2316C12.718 31.247 14.1205 31.8367 15.5176 31.9704C16.9187 32.1044 18.4441 31.7904 19.6422 30.8243C20.6469 30.0143 21.3203 28.8273 21.5336 27.3123H29.0172C30.3211 27.3123 31.2814 26.4898 31.7154 25.5254C32.1457 24.5693 32.1298 23.3315 31.3759 22.3413C29.5061 19.8853 27.951 17.1201 26.8376 14.5306C25.716 11.9222 25.0788 9.5763 24.9746 7.95335C24.9263 7.20131 24.825 6.21474 24.3208 5.31386C22.8891 2.75559 21.0827 1.30234 19.2282 0.582463ZM17.2538 2.59237C16.8694 2.51972 16.4459 2.47174 15.9976 2.46767C15.5511 2.47203 15.1291 2.51992 14.746 2.59233C14.6843 2.60401 14.6227 2.61089 14.5617 2.61322C14.2666 2.67771 13.9679 2.76584 13.6687 2.88198C12.4 3.37445 11.0175 4.41056 9.83882 6.51665C9.62546 6.89791 9.5395 7.39771 9.4937 8.11109C9.36426 10.1273 8.61266 12.7655 7.43552 15.5032C6.25027 18.2599 4.59685 21.2027 2.59375 23.8337C2.46024 24.009 2.42938 24.2668 2.54103 24.5149C2.64895 24.7547 2.81923 24.8449 2.98262 24.8449H15.0487L15.059 24.8449H29.0172C29.1806 24.8449 29.3509 24.7546 29.4588 24.5148C29.5705 24.2668 29.5396 24.009 29.4061 23.8336C27.403 21.2026 25.7496 18.2598 24.5643 15.5032C23.3872 12.7655 22.6356 10.1272 22.5061 8.11104C22.4603 7.39767 22.3744 6.89786 22.161 6.51661C20.9824 4.41052 19.5998 3.37441 18.3311 2.88194C18.0321 2.76586 17.7335 2.67775 17.4386 2.61328C17.3775 2.61096 17.3157 2.60408 17.2538 2.59237ZM16.9408 27.3124L16.9514 27.3123H19.0224C18.8482 28.0824 18.4876 28.5826 18.0873 28.9053C17.4934 29.3842 16.6519 29.6001 15.7538 29.5142C14.8517 29.4279 14.0225 29.0477 13.4945 28.5081C13.1712 28.1777 12.9506 27.7824 12.8861 27.3124H16.9408ZM21.6831 12.881C21.6199 12.2026 21.0173 11.7038 20.3371 11.7669C19.657 11.83 19.157 12.4311 19.2202 13.1096C19.4598 15.6786 20.3071 18.7364 23.0289 22.1523C23.454 22.6857 24.232 22.7744 24.7667 22.3504C25.3014 21.9264 25.3903 21.1503 24.9653 20.6169C22.5751 17.6174 21.8833 15.0276 21.6831 12.881Z" fill="#FF5F29"/>
</svg>
