<svg width="22" height="22" viewBox="0 0 22 22" fill="none" xmlns="http://www.w3.org/2000/svg">
<path fill-rule="evenodd" clip-rule="evenodd" d="M14.9136 6.04318C14.9136 8.49073 12.932 10.4749 10.4875 10.4749C8.0431 10.4749 6.0615 8.49073 6.0615 6.04318C6.0615 3.59564 8.0431 1.61152 10.4875 1.61152C12.932 1.61152 14.9136 3.59564 14.9136 6.04318ZM10.8275 12.0769C14.0026 11.9004 16.523 9.26652 16.523 6.04318C16.523 2.70563 13.8209 0 10.4875 0C7.15422 0 4.45203 2.70563 4.45203 6.04318C4.45203 8.00553 5.38616 9.74941 6.83347 10.8534C6.22503 10.9852 5.60361 11.1584 4.9943 11.3787C2.96976 12.1108 0.912812 13.4279 0.0536391 15.6646L0 15.8042V17.5922C0 19.5206 1.56126 21.0838 3.48718 21.0838H17.5969C19.5228 21.0838 21.084 19.5206 21.084 17.5922V16.71L21.078 16.6607C20.7255 13.8053 18.3487 12.4076 16.5618 11.5944C16.1572 11.4102 15.6801 11.5894 15.4962 11.9945C15.3123 12.3996 15.4912 12.8773 15.8958 13.0614C17.6355 13.8532 19.217 14.9155 19.4746 16.8115V17.5922C19.4746 18.6306 18.6339 19.4723 17.5969 19.4723H3.48718C2.45015 19.4723 1.60947 18.6305 1.60947 17.5922V16.1102C2.25791 14.579 3.76057 13.5382 5.54101 12.8944C7.36085 12.2363 9.30693 12.0561 10.4583 12.1379C10.5889 12.1472 10.7145 12.1247 10.8275 12.0769Z" fill="#FF5F29"/>
</svg>
