<svg width="24" height="24" viewBox="0 0 24 24" fill="none" xmlns="http://www.w3.org/2000/svg">
<path fill-rule="evenodd" clip-rule="evenodd" d="M22.1457 2.25494C22.1732 1.99551 21.9001 1.81529 21.6814 1.94853L2.30479 13.7518C1.67887 14.1331 1.70699 15.0721 2.35456 15.4132L5.39988 17.0176L16.4877 7.54297C16.8444 7.23816 17.366 7.25149 17.7075 7.57415C18.049 7.89681 18.1047 8.42902 17.8378 8.81869L15.1218 12.7838C15.1171 12.7907 15.1123 12.7975 15.1074 12.8043L10.4094 19.2891L17.3468 21.9569C18.6672 22.4646 20.1003 21.5595 20.2526 20.1213L22.1457 2.25494ZM20.736 0.31534C22.2671 -0.617371 24.179 0.644138 23.9866 2.46019L22.0935 20.3266C21.8104 22.9974 19.1491 24.6785 16.6968 23.7354L8.83789 20.7134C8.1458 20.4472 7.89528 19.575 8.33616 18.9664L12.1128 13.7535L6.2085 18.7987C5.86607 19.0913 5.38633 19.1457 4.98989 18.9368L1.50866 17.1029C-0.434028 16.0795 -0.518408 13.2625 1.35936 12.1186L20.736 0.31534Z" fill="#FF5F29"/>
</svg>
