<svg width="21" height="19" viewBox="0 0 21 19" fill="none" xmlns="http://www.w3.org/2000/svg">
<path fill-rule="evenodd" clip-rule="evenodd" d="M5.10235 0.000287229C6.86631 -0.0251205 8.80552 1.64016 10.5 2.9884C12.1945 1.64016 14.1337 -0.0251205 15.8976 0.000287229C17.8391 0.0282509 19.6159 0.886349 20.4761 2.57533C21.3294 4.25086 21.1779 6.54263 19.7438 9.24997C18.3076 11.9612 15.544 15.1815 10.9754 18.8303C10.928 18.8695 10.8765 18.9021 10.8221 18.9278C10.6214 19.023 10.3826 19.0251 10.1779 18.9278C10.1235 18.9021 10.072 18.8695 10.0246 18.8303C5.45598 15.1815 2.69235 11.9612 1.25621 9.24997C-0.177849 6.54263 -0.329441 4.25086 0.523881 2.57533C1.38406 0.886349 3.16088 0.0282509 5.10235 0.000287229Z" fill="#FF5F29"/>
</svg>
