<svg width="32" height="32" viewBox="0 0 32 32" fill="none" xmlns="http://www.w3.org/2000/svg">
<path opacity="0.3" fill-rule="evenodd" clip-rule="evenodd" d="M13.1079 23.2357C18.9683 23.2357 23.7191 18.5817 23.7191 12.8408C23.7191 7.09982 18.9683 2.44586 13.1079 2.44586C7.24754 2.44586 2.49675 7.09982 2.49675 12.8408C2.49675 18.5817 7.24754 23.2357 13.1079 23.2357ZM13.1079 25.6815C16.108 25.6815 18.8726 24.6942 21.0817 23.0332L29.8694 31.6418C30.3569 32.1194 31.1473 32.1194 31.6349 31.6418C32.1224 31.1642 32.1224 30.3899 31.6349 29.9123L22.9105 21.3658C24.9669 19.0983 26.2159 16.1124 26.2159 12.8408C26.2159 5.74901 20.3472 0 13.1079 0C5.86862 0 0 5.74901 0 12.8408C0 19.9325 5.86862 25.6815 13.1079 25.6815ZM8.71766 8.46606C9.17 7.95634 9.11489 7.1839 8.59456 6.74078C8.07423 6.29766 7.28573 6.35165 6.83339 6.86137C5.81907 8.00436 4.68674 10.0013 4.51607 12.3826C4.34053 14.832 5.19383 17.5768 7.98129 20.0634C8.49105 20.5182 9.28062 20.482 9.74483 19.9827C10.209 19.4833 10.1721 18.7098 9.66236 18.2551C7.42755 16.2614 6.88578 14.2409 7.00669 12.5539C7.13248 10.7988 7.98813 9.28812 8.71766 8.46606Z" fill="black"/>
</svg>
