<svg width="32" height="32" viewBox="0 0 32 32" fill="none" xmlns="http://www.w3.org/2000/svg">
<g opacity="0.3">
<path fill-rule="evenodd" clip-rule="evenodd" d="M6.67107 6.15614C7.19881 5.62009 7.64362 5.16828 8.36376 5.16828L8.36403 5.16837C8.4562 5.16837 8.56538 5.18537 8.67077 5.21058C8.81156 5.24429 8.94184 5.28903 9.02703 5.33024C9.25003 5.43798 9.2945 5.47912 9.42039 5.59559L9.42069 5.59587L9.56121 5.72575C9.93105 6.06151 10.3616 6.25963 10.7962 6.32904C11.1431 6.38444 11.4904 6.35579 11.8138 6.24806C12.1479 6.1368 12.4499 5.94465 12.6939 5.67685C12.9712 5.37245 13.1698 4.97532 13.2465 4.49658C13.2799 4.28803 13.2784 4.12555 13.2769 3.96209V3.96198L13.2768 3.95624C13.2763 3.89416 13.2758 3.83285 13.2782 3.819C13.3405 3.47248 13.5606 3.12225 13.8607 2.85247C14.1232 2.61658 14.4275 2.46338 14.7072 2.46338C14.8849 2.46338 15.2979 2.45272 15.6911 2.4425C17.0166 2.40816 17.9693 2.38349 18.571 3.37315C18.6463 3.49709 18.6835 3.79338 18.7181 4.06864L18.7182 4.06908C18.8743 5.31416 19.0103 6.39791 20.9272 6.39791C21.5648 6.39791 21.9497 6.0944 22.4221 5.72181L22.4225 5.7215C22.8148 5.41204 23.3622 4.98029 24.2405 5.27719C24.6064 5.40083 24.9429 5.7506 25.292 6.11348L25.5919 6.42529C25.603 6.43637 25.6381 6.46989 25.6907 6.52016C25.7415 6.56873 25.8086 6.63294 25.8863 6.70764C26.3626 7.16578 26.851 7.63567 26.851 8.31542C26.851 8.92537 26.5721 9.26139 26.3497 9.52935L26.3496 9.52949C25.8226 10.1641 25.4077 10.6638 25.7461 11.7385C25.863 12.1099 26.0398 12.4296 26.3283 12.7017C26.621 12.9777 26.984 13.1608 27.4569 13.2422C27.6155 13.2696 27.7746 13.2781 27.9499 13.2875L27.9509 13.2875C28.2359 13.3027 28.6192 13.3233 28.9638 13.657C29.1218 13.81 29.2904 13.9964 29.4103 14.2032C29.4986 14.3555 29.5607 14.5264 29.5607 14.7091V17.1682C29.5607 17.4744 29.4452 17.7691 29.2698 18.0164C29.0654 18.3046 28.7939 18.5198 28.5325 18.6132C28.295 18.698 28.0551 18.7156 27.8522 18.7304C26.8616 18.8026 26.1899 18.8518 25.746 20.2617C25.5879 20.7641 25.6305 21.22 25.7858 21.6274C25.9155 21.968 26.1214 22.2479 26.3417 22.4786C26.4549 22.5971 26.5271 22.6751 26.5719 22.7388C26.6137 22.7982 26.6548 22.8775 26.7147 23.011C26.8296 23.2664 26.8666 23.5521 26.8353 23.8322C26.8031 24.1203 26.7004 24.392 26.5372 24.6095C26.4426 24.7354 26.0054 25.1857 25.5471 25.6398C25.1108 26.0719 24.6902 26.4736 24.5737 26.5573C24.365 26.7073 24.0981 26.7976 23.8132 26.8198H23.8084C23.5231 26.8421 23.2317 26.7948 22.9735 26.6701C22.7504 26.5623 22.7061 26.5213 22.5801 26.4047L22.4393 26.2745C22.0693 25.9385 21.6361 25.7404 21.1979 25.6712C20.8525 25.6167 20.5068 25.6454 20.1857 25.7526C19.8515 25.8642 19.5497 26.0562 19.3062 26.3235C19.029 26.6277 18.8305 27.0264 18.7542 27.5085C18.7176 27.7393 18.7159 27.8992 18.7142 28.0568L18.7142 28.0572V28.0574C18.713 28.166 18.7119 28.2717 18.611 28.5366C18.5211 28.7726 18.2963 29.0412 18.0045 29.2538C17.773 29.4224 17.5192 29.5368 17.2935 29.5368C17.1158 29.5368 16.7028 29.5475 16.3096 29.5577C14.9841 29.592 14.0314 29.6167 13.4297 28.627C13.3116 28.4328 13.2981 28.213 13.2851 28.0036L13.2851 28.0035C13.2752 27.8431 13.2655 27.6855 13.2417 27.5273C13.162 26.9962 12.9304 26.5576 12.6069 26.2333C12.369 25.9949 12.0858 25.8221 11.7774 25.7212C11.4715 25.6213 11.1458 25.5926 10.8205 25.6412C10.3622 25.7097 9.90769 25.9276 9.52164 26.3113C9.28126 26.5502 9.00014 26.7131 8.69802 26.7836C8.41002 26.8507 8.09196 26.8352 7.76014 26.7231C7.67947 26.6958 7.61592 26.6687 7.56476 26.6409C7.49913 26.6053 7.43711 26.5645 7.37581 26.5186C7.26373 26.4348 6.75672 25.945 6.26637 25.4543C5.85388 25.0415 5.48847 24.6676 5.45226 24.6119C5.183 24.1985 5.09988 23.8393 5.14823 23.5163C5.20355 23.1471 5.42772 22.7552 5.7503 22.3466C5.83755 22.2361 5.80978 22.2695 5.80308 22.2776C5.80097 22.2801 5.80094 22.2802 5.80725 22.2724L5.80743 22.2722C6.25587 21.7212 6.61688 21.2777 6.22463 20.1716C6.07877 19.7602 5.85632 19.4387 5.53727 19.1868C5.22763 18.9423 4.87146 18.8018 4.44801 18.7445C4.16528 18.7063 3.98055 18.6971 3.82715 18.6896L3.82684 18.6895C3.71131 18.6838 3.63879 18.6802 3.44214 18.6062C3.20638 18.5175 2.93731 18.293 2.72427 18.0017C2.55506 17.7703 2.43998 17.5163 2.43998 17.2911V14.7091C2.43998 14.5265 2.502 14.3556 2.59037 14.2032C2.71024 13.9964 2.87891 13.81 3.0369 13.657C3.37985 13.3248 3.76382 13.2984 4.07545 13.2771L4.07547 13.2771C5.09328 13.2073 5.86737 13.1543 6.27868 11.6478C6.56676 10.5925 6.18926 10.151 5.67758 9.55253L5.67751 9.55245L5.67728 9.55219C5.54334 9.39552 5.38538 9.21078 5.28585 8.98929C4.83244 7.98056 5.63912 7.18232 6.28647 6.54179C6.44908 6.38093 6.37137 6.45994 6.31449 6.51777C6.25986 6.5733 6.22445 6.6093 6.43957 6.39456C6.54442 6.28989 6.54835 6.285 6.55407 6.27786C6.55966 6.27091 6.56694 6.26183 6.67107 6.15614L6.67107 6.15614ZM8.36376 2.73281C6.63051 2.73281 5.85578 3.51966 4.93664 4.45319L4.93655 4.45337C4.92676 4.46331 4.92344 4.46668 4.92343 4.46667C4.92337 4.46662 5.01961 4.36829 4.71456 4.67282C4.32967 5.05704 4.53586 4.85423 4.6021 4.78908C4.62814 4.76347 4.63255 4.75913 4.57096 4.82005C3.39244 5.98613 1.92374 7.43936 3.06524 9.97886C3.24043 10.3687 3.43227 10.6466 3.61371 10.8743C2.9622 10.9332 2.19309 11.0905 1.34032 11.9163C1.05277 12.1947 0.737065 12.5493 0.484013 12.9856C0.199544 13.4763 0 14.051 0 14.7093V17.2913C0 18.059 0.307827 18.8096 0.760786 19.4289C1.24824 20.0955 1.93261 20.6348 2.58403 20.8801C3.09122 21.0711 3.32037 21.0952 3.632 21.1116C3.17189 21.7503 2.84758 22.4247 2.73677 23.1645C2.6034 24.0546 2.78502 24.9712 3.41245 25.9343C3.54753 26.1417 4.03462 26.6599 4.54109 27.1668C5.09164 27.7176 5.71101 28.305 5.91744 28.4594C6.07207 28.5749 6.23061 28.6791 6.40181 28.7719C6.58741 28.8725 6.77727 28.9573 6.97844 29.0253C7.75924 29.2893 8.53098 29.3202 9.25048 29.1523C9.84033 29.0148 10.3876 28.7446 10.8691 28.3609C10.9029 28.7978 10.9796 29.2703 11.3519 29.8828C12.687 32.0788 14.2258 32.0391 16.3665 31.9836L16.3758 31.9833C16.5861 31.978 16.8099 31.9723 17.2932 31.9723C18.0622 31.9723 18.8132 31.6656 19.4336 31.2136C20.1 30.7279 20.6399 30.0453 20.8883 29.3928C21.0642 28.9308 21.1174 28.6318 21.1347 28.3771C21.3305 28.547 21.4986 28.6568 21.9154 28.8582C22.5766 29.1776 23.3025 29.3002 23.9987 29.2457V29.2453C24.7171 29.1883 25.4161 28.9414 25.9933 28.5266C26.2228 28.3618 26.7557 27.8634 27.2622 27.3617C27.7816 26.8472 28.3106 26.2922 28.4809 26.065C28.9095 25.4937 29.1762 24.8068 29.2555 24.0985C29.3328 23.4078 29.2337 22.6866 28.9349 22.0216C28.8021 21.7263 28.6969 21.5301 28.5634 21.3404C28.5094 21.2638 28.4552 21.1939 28.3962 21.1238C28.6729 21.0928 28.9866 21.0363 29.3518 20.9058C30.053 20.6553 30.7536 20.1171 31.2517 19.4148C31.703 18.7787 32 18.0009 32 17.1682V14.7091C32 14.0508 31.8005 13.476 31.516 12.9854C31.2631 12.5489 30.9473 12.1944 30.6598 11.916C29.8067 11.09 29.0213 10.9324 28.3896 10.8814C28.8243 10.3411 29.2902 9.63162 29.2902 8.31533C29.2902 6.6094 28.4206 5.77284 27.5725 4.95706L27.5724 4.95689C27.5451 4.93065 27.518 4.90457 27.3163 4.70328C27.1167 4.50388 27.0816 4.46746 27.0462 4.43067L27.045 4.42942C26.4855 3.84783 25.946 3.28729 25.0215 2.97475C23.0683 2.31443 21.9358 3.03007 21.1234 3.65658C21.0613 3.17395 20.9769 2.65833 20.648 2.11722C19.3128 -0.0789268 17.7741 -0.0390691 15.6335 0.0164244L15.624 0.0166666C15.4137 0.0220206 15.1899 0.027722 14.7067 0.027722C13.7973 0.027722 12.9168 0.428107 12.2307 1.04468C11.5528 1.65403 11.0457 2.50098 10.8859 3.39068C10.8713 3.47175 10.8619 3.54569 10.8559 3.61492C10.664 3.44961 10.4946 3.34016 10.0845 3.14196C9.86894 3.03775 9.5565 2.92866 9.23274 2.85111C8.93704 2.78035 8.62849 2.73281 8.36376 2.73281ZM3.92118 11.0525C3.91937 11.0565 3.91828 11.0573 3.91764 11.0555C3.91602 11.0508 3.91792 11.0278 3.92036 10.9989L3.92281 10.9938L3.92579 11.0392L3.92587 11.039L3.92588 11.0392L3.92118 11.0525ZM3.92587 11.039L3.93412 11.0104H3.93421C3.95621 10.9297 3.94508 10.9492 3.92281 10.9938H3.9229L3.92587 11.039ZM20.9601 3.92277C20.9971 3.94729 21.0198 3.96234 20.9268 3.96234C20.8134 3.96234 20.8616 3.94191 20.9405 3.90947C20.9471 3.91416 20.9538 3.9186 20.9601 3.92277ZM19.5175 16.0331C19.5175 17.9834 17.9338 19.5645 15.9801 19.5645C14.0264 19.5645 12.4426 17.9834 12.4426 16.0331C12.4426 14.0828 14.0264 12.5018 15.9801 12.5018C17.9338 12.5018 19.5175 14.0828 19.5175 16.0331ZM21.9572 16.0331C21.9572 19.3285 19.2811 21.9999 15.9801 21.9999C12.679 21.9999 10.0029 19.3285 10.0029 16.0331C10.0029 12.7378 12.679 10.0664 15.9801 10.0664C19.2811 10.0664 21.9572 12.7378 21.9572 16.0331Z" fill="black"/>
</g>
</svg>
