<svg width="29" height="24" viewBox="0 0 29 24" fill="none" xmlns="http://www.w3.org/2000/svg">
<path fill-rule="evenodd" clip-rule="evenodd" d="M3.15226 24C1.41131 24 -4.69686e-08 22.9255 -1.04907e-07 21.6L-9.44166e-07 2.4C-1.0021e-06 1.07452 1.41131 -6.16905e-08 3.15226 -1.3779e-07C4.8932 -2.13889e-07 6.30452 1.07452 6.30452 2.4L6.30452 21.6C6.30452 22.9255 4.8932 24 3.15226 24Z" fill="black" fill-opacity="0.25"/>
<path fill-rule="evenodd" clip-rule="evenodd" d="M14.5009 24C12.7599 24 11.3486 22.9255 11.3486 21.6L11.3486 2.4C11.3486 1.07452 12.7599 -6.16905e-08 14.5009 -1.3779e-07C16.2418 -2.13889e-07 17.6531 1.07452 17.6531 2.4L17.6532 21.6C17.6532 22.9255 16.2418 24 14.5009 24Z" fill="black" fill-opacity="0.25"/>
<path fill-rule="evenodd" clip-rule="evenodd" d="M25.8485 24C24.1076 24 22.6963 22.9099 22.6963 21.5652L22.6963 11.8261C22.6963 10.4814 24.1076 9.3913 25.8485 9.3913C27.5895 9.3913 29.0008 10.4814 29.0008 11.8261L29.0008 21.5652C29.0008 22.9099 27.5895 24 25.8485 24Z" fill="black" fill-opacity="0.25"/>
</svg>
