<svg width="30" height="26" viewBox="0 0 30 26" fill="none" xmlns="http://www.w3.org/2000/svg">
<path d="M26.7818 0.221584C26.7818 0.221584 29.4903 -0.864857 29.2645 1.77364C29.1893 2.8601 28.5122 6.66264 27.9856 10.7756L26.18 22.9593C26.18 22.9593 26.0295 24.7442 24.6753 25.0546C23.3211 25.365 21.2898 23.9682 20.9136 23.6577C20.6126 23.4249 15.2711 19.9328 13.3902 18.2255C12.8635 17.7599 12.2617 16.8286 13.4654 15.7422L21.365 7.98193C22.2678 7.05068 23.1706 4.87779 19.4089 7.5163L8.87616 14.8886C8.87616 14.8886 7.67242 15.6646 5.41544 14.9662L0.525205 13.4141C0.525205 13.4141 -1.28041 12.2501 1.80418 11.086C9.3276 7.43864 18.5814 3.71369 26.7818 0.221584Z" fill="#DFDFDF"/>
</svg>
