<svg width="32" height="26" viewBox="0 0 32 26" fill="none" xmlns="http://www.w3.org/2000/svg">
<path d="M30.3417 3.13694C29.8643 3.34868 29.3736 3.52739 28.8722 3.67247C29.4658 3.00098 29.9185 2.21088 30.1947 1.34628C30.2567 1.15248 30.1925 0.940347 30.0332 0.813598C29.8741 0.686751 29.6531 0.671556 29.478 0.775367C28.4131 1.40706 27.2642 1.86102 26.0595 2.12648C24.846 0.940544 23.1979 0.265625 21.494 0.265625C17.8975 0.265625 14.9714 3.19204 14.9714 6.78905C14.9714 7.07235 14.9894 7.35408 15.0249 7.63189C10.5619 7.23998 6.41274 5.04603 3.56354 1.55047C3.462 1.42588 3.30557 1.35873 3.14542 1.37157C2.98517 1.38412 2.84119 1.4745 2.76023 1.6134C2.18235 2.60515 1.87685 3.73942 1.87685 4.8935C1.87685 6.46537 2.43797 7.95675 3.42916 9.1221C3.12778 9.0177 2.83531 8.88723 2.55617 8.73225C2.40631 8.64883 2.22342 8.6501 2.07454 8.73548C1.92556 8.82087 1.83216 8.97791 1.82824 9.14955C1.82755 9.17847 1.82755 9.20739 1.82755 9.2367C1.82755 11.583 3.09014 13.6954 5.02048 14.8467C4.85465 14.8301 4.68891 14.8061 4.52425 14.7747C4.35449 14.7422 4.17993 14.8017 4.06546 14.9312C3.95078 15.0606 3.91285 15.241 3.96568 15.4057C4.68019 17.6368 6.51977 19.2778 8.74366 19.7782C6.89918 20.9336 4.78986 21.5388 2.57558 21.5388C2.11355 21.5388 1.64887 21.5117 1.1941 21.4579C0.96818 21.431 0.752162 21.5644 0.675223 21.7793C0.598283 21.9943 0.679829 22.2339 0.872031 22.3572C3.71663 24.1814 7.00581 25.1456 10.3838 25.1456C17.0245 25.1456 21.1787 22.0136 23.4943 19.3862C26.3817 16.11 28.0377 11.7735 28.0377 7.48887C28.0377 7.30987 28.035 7.12911 28.0295 6.94894C29.1687 6.09051 30.1495 5.05162 30.9476 3.85754C31.0688 3.67619 31.0557 3.43652 30.9152 3.26958C30.775 3.10254 30.5412 3.04852 30.3417 3.13694Z" fill="#DFDFDF"/>
</svg>
