<svg width="32" height="32" viewBox="0 0 32 32" fill="none" xmlns="http://www.w3.org/2000/svg">
<path opacity="0.3" fill-rule="evenodd" clip-rule="evenodd" d="M22.6357 9.17196C22.6357 12.8867 19.6281 15.8981 15.9181 15.8981C12.2081 15.8981 9.20056 12.8867 9.20056 9.17196C9.20056 5.45723 12.2081 2.44586 15.9181 2.44586C19.6281 2.44586 22.6357 5.45723 22.6357 9.17196ZM16.434 18.3296C21.2531 18.0617 25.0784 14.0641 25.0784 9.17196C25.0784 4.10643 20.9772 0 15.9181 0C10.859 0 6.75781 4.10643 6.75781 9.17196C6.75781 12.1503 8.17564 14.7972 10.3724 16.4727C9.44861 16.6728 8.50512 16.9357 7.58003 17.2702C4.50731 18.3813 1.38541 20.3803 0.08141 23.775L0 23.9869V26.7006C0 29.6274 2.36959 32 5.29262 32H26.7074C29.6304 32 32 29.6274 32 26.7006V25.3617L31.9908 25.2869C31.4558 20.9532 27.8485 18.8318 25.1364 17.5975C24.5224 17.318 23.7983 17.5899 23.5191 18.2048C23.24 18.8197 23.5115 19.5447 24.1256 19.8242C26.766 21.0258 29.1663 22.6382 29.5573 25.5158V26.7006C29.5573 28.2766 28.2813 29.5541 26.7074 29.5541H5.29262C3.71868 29.5541 2.44275 28.2766 2.44275 26.7006V24.4514C3.42692 22.1274 5.70755 20.5478 8.40979 19.5706C11.1718 18.5718 14.1255 18.2983 15.8729 18.4224C16.0715 18.4365 16.2624 18.4023 16.434 18.3296Z" fill="black"/>
</svg>
