<svg width="42" height="32" viewBox="0 0 42 32" fill="none" xmlns="http://www.w3.org/2000/svg">
<path fill-rule="evenodd" clip-rule="evenodd" d="M22.2286 9.36154C22.2286 12.9731 19.3046 15.9008 15.6976 15.9008C12.0907 15.9008 9.16667 12.9731 9.16667 9.36154C9.16667 5.74999 12.0907 2.82226 15.6976 2.82226C19.3046 2.82226 22.2286 5.74999 22.2286 9.36154ZM16.2018 18.2647C20.8858 18.003 24.6035 14.117 24.6035 9.36154C24.6035 4.4367 20.6162 0.444336 15.6976 0.444336C10.7791 0.444336 6.79178 4.4367 6.79178 9.36154C6.79178 12.2576 8.17064 14.8313 10.3069 16.4602C9.40849 16.6548 8.49088 16.9104 7.59117 17.2358C4.60379 18.3161 1.56861 20.2595 0.300828 23.5599L0.22168 23.766V26.4043C0.22168 29.2497 2.52545 31.5564 5.36729 31.5564H26.1872C29.0291 31.5564 31.3328 29.2497 31.3328 26.4043V25.1025L31.3239 25.0299C30.8038 20.8165 27.2966 18.754 24.6599 17.554C24.0629 17.2823 23.3589 17.5466 23.0876 18.1444C22.8162 18.7422 23.0802 19.4471 23.6772 19.7188C26.2442 20.8871 28.5779 22.4546 28.958 25.2523V26.4043C28.958 27.9365 27.7175 29.1785 26.1872 29.1785H5.36729C3.83707 29.1785 2.59658 27.9365 2.59658 26.4043V24.2175C3.55341 21.9581 5.7707 20.4223 8.39788 19.4723C11.0832 18.5012 13.9548 18.2354 15.6537 18.356C15.8478 18.3698 16.0342 18.3361 16.2018 18.2647Z" fill="#33CC33"/>
<path fill-rule="evenodd" clip-rule="evenodd" d="M35.9079 3.42205C35.9079 3.18896 35.7005 3 35.4446 3C35.1887 3 34.9812 3.18896 34.9812 3.42205V7.98124H30.4221C30.189 7.98124 30 8.18869 30 8.4446C30 8.7005 30.189 8.90796 30.4221 8.90796H34.9812V13.4669C34.9812 13.7 35.1887 13.8889 35.4446 13.8889C35.7005 13.8889 35.9079 13.7 35.9079 13.4669V8.90796H40.4669C40.7 8.90796 40.8889 8.7005 40.8889 8.4446C40.8889 8.18869 40.7 7.98124 40.4669 7.98124H35.9079V3.42205Z" fill="#33CC33"/>
<path d="M34.9812 7.98124V8.48124H35.4812V7.98124H34.9812ZM34.9812 8.90796H35.4812V8.40796H34.9812V8.90796ZM35.9079 8.90796V8.40796H35.4079V8.90796H35.9079ZM35.9079 7.98124H35.4079V8.48124H35.9079V7.98124ZM35.4446 3.5C35.4492 3.5 35.4446 3.50155 35.4355 3.49326C35.4256 3.48427 35.4079 3.45957 35.4079 3.42205H36.4079C36.4079 2.8699 35.9316 2.5 35.4446 2.5V3.5ZM35.4812 3.42205C35.4812 3.45957 35.4635 3.48427 35.4536 3.49326C35.4445 3.50155 35.44 3.5 35.4446 3.5V2.5C34.9575 2.5 34.4812 2.8699 34.4812 3.42205H35.4812ZM35.4812 7.98124V3.42205H34.4812V7.98124H35.4812ZM30.4221 8.48124H34.9812V7.48124H30.4221V8.48124ZM30.5 8.4446C30.5 8.44001 30.5016 8.44455 30.4933 8.45365C30.4843 8.46352 30.4596 8.48124 30.4221 8.48124V7.48124C29.8699 7.48124 29.5 7.95751 29.5 8.4446H30.5ZM30.4221 8.40796C30.4596 8.40796 30.4843 8.42568 30.4933 8.43555C30.5016 8.44465 30.5 8.44919 30.5 8.4446H29.5C29.5 8.93168 29.8699 9.40796 30.4221 9.40796V8.40796ZM34.9812 8.40796H30.4221V9.40796H34.9812V8.40796ZM35.4812 13.4669V8.90796H34.4812V13.4669H35.4812ZM35.4446 13.3889C35.44 13.3889 35.4445 13.3874 35.4536 13.3957C35.4635 13.4046 35.4812 13.4293 35.4812 13.4669H34.4812C34.4812 14.019 34.9575 14.3889 35.4446 14.3889V13.3889ZM35.4079 13.4669C35.4079 13.4293 35.4256 13.4046 35.4355 13.3957C35.4446 13.3874 35.4492 13.3889 35.4446 13.3889V14.3889C35.9316 14.3889 36.4079 14.019 36.4079 13.4669H35.4079ZM35.4079 8.90796V13.4669H36.4079V8.90796H35.4079ZM40.4669 8.40796H35.9079V9.40796H40.4669V8.40796ZM40.3889 8.4446C40.3889 8.44919 40.3874 8.44465 40.3957 8.43555C40.4046 8.42568 40.4293 8.40796 40.4669 8.40796V9.40796C41.019 9.40796 41.3889 8.93168 41.3889 8.4446H40.3889ZM40.4669 8.48124C40.4293 8.48124 40.4046 8.46352 40.3957 8.45365C40.3874 8.44455 40.3889 8.44001 40.3889 8.4446H41.3889C41.3889 7.95751 41.019 7.48124 40.4669 7.48124V8.48124ZM35.9079 8.48124H40.4669V7.48124H35.9079V8.48124ZM35.4079 3.42205V7.98124H36.4079V3.42205H35.4079Z" fill="#33CC33"/>
</svg>
