<svg width="24" height="24" viewBox="0 0 24 24" fill="none" xmlns="http://www.w3.org/2000/svg">
<g opacity="0.3">
<path fill-rule="evenodd" clip-rule="evenodd" d="M9.23074 1.84615H20.923C21.6027 1.84615 22.1538 2.39719 22.1538 3.07692V6.52246H16.6164C13.8975 6.52246 11.6934 8.7266 11.6934 11.4455C11.6934 14.1645 13.8975 16.3686 16.6164 16.3686H22.1538V20.9231C22.1538 21.6028 21.6027 22.1538 20.923 22.1538H9.23074C5.15234 22.1538 1.84615 18.8476 1.84615 14.7692V9.23077C1.84615 5.15236 5.15234 1.84615 9.23074 1.84615ZM22.1538 8.36862V14.5225H16.6164C14.9171 14.5225 13.5395 13.1449 13.5395 11.4455C13.5395 9.7462 14.9171 8.36862 16.6164 8.36862H22.1538ZM23.9999 16.3686V20.9231C23.9999 22.6224 22.6223 24 20.923 24H9.23074C4.13274 24 0 19.8672 0 14.7692V9.23077C0 4.13276 4.13274 0 9.23074 0H20.923C22.6223 0 23.9999 1.37759 23.9999 3.07692V6.52246H24.001V16.3686H23.9999Z" fill="black"/>
</g>
</svg>
