<svg width="30" height="28" viewBox="0 0 30 28" fill="none" xmlns="http://www.w3.org/2000/svg">
<path d="M14.2533 5.79906L15.0358 6.42724L15.8183 5.79906C15.9938 5.65817 16.1689 5.51674 16.3437 5.37557C17.3659 4.55006 18.3774 3.73312 19.3957 3.08146C20.6041 2.30822 21.6223 1.90408 22.4618 1.91628C24.7967 1.95021 26.7518 2.97692 27.6785 4.8128L28.7944 4.24952L27.6785 4.81281C28.6046 6.64729 28.5523 9.38536 26.6777 12.956L27.7844 13.5371L26.6777 12.956C24.8186 16.4971 21.1849 20.8165 15.0358 25.7906C8.88664 20.8165 5.253 16.4971 3.39394 12.956C1.51931 9.38536 1.46708 6.64729 2.39309 4.81279C3.31981 2.97692 5.27494 1.95021 7.60978 1.91628C8.44929 1.90408 9.46755 2.30822 10.6759 3.08146C11.6943 3.73312 12.7057 4.55004 13.7279 5.37555C13.9027 5.51673 14.0778 5.65816 14.2533 5.79906Z" stroke="#FF5E27" stroke-width="2.5"/>
</svg>
